0
SECTION
2
HEADER
9
$ACADVER
1
AC1003
9
$EXTMIN
10
0.000000
20
0.000000
9
$EXTMAX
10
697.000000
20
856.000000
9
$LIMMIN
10
0.000000
20
0.000000
9
$LIMMAX
10
697.000000
20
856.000000
0
ENDSEC
0
SECTION
2
TABLES
0
TABLE
2
LAYER
70
1
0
LAYER
2
0
70
64
62
3
6
CONTINUOUS
0
ENDTAB
0
ENDSEC
0
SECTION
2
BLOCKS
0
ENDSEC
0
SECTION
2
ENTITIES
0
POLYLINE
8
0
6
CONTINUOUS
66
1
10
0.0
20
0.0
30
0.000000
0
VERTEX
8
0
10
445.000000
20
683.000000
30
0.000000
0
VERTEX
8
0
10
447.000000
20
682.000000
30
0.000000
0
VERTEX
8
0
10
448.000000
20
654.000000
30
0.000000
0
VERTEX
8
0
10
445.000000
20
636.000000
30
0.000000
0
VERTEX
8
0
10
437.000000
20
617.000000
30
0.000000
0
VERTEX
8
0
10
430.000000
20
607.000000
30
0.000000
0
VERTEX
8
0
10
411.000000
20
590.000000
30
0.000000
0
VERTEX
8
0
10
379.000000
20
574.000000
30
0.000000
0
VERTEX
8
0
10
357.000000
20
568.000000
30
0.000000
0
VERTEX
8
0
10
350.000000
20
569.000000
30
0.000000
0
VERTEX
8
0
10
351.000000
20
593.000000
30
0.000000
0
VERTEX
8
0
10
354.000000
20
607.000000
30
0.000000
0
VERTEX
8
0
10
360.000000
20
624.000000
30
0.000000
0
VERTEX
8
0
10
371.000000
20
641.000000
30
0.000000
0
VERTEX
8
0
10
387.000000
20
656.000000
30
0.000000
0
VERTEX
8
0
10
414.000000
20
672.000000
30
0.000000
0
VERTEX
8
0
10
445.000000
20
683.000000
30
0.000000
0
SEQEND
0
POLYLINE
8
0
6
CONTINUOUS
66
1
10
0.0
20
0.0
30
0.000000
0
VERTEX
8
0
10
429.000000
20
559.000000
30
0.000000
0
VERTEX
8
0
10
456.000000
20
559.000000
30
0.000000
0
VERTEX
8
0
10
480.000000
20
554.000000
30
0.000000
0
VERTEX
8
0
10
493.000000
20
549.000000
30
0.000000
0
VERTEX
8
0
10
518.000000
20
533.000000
30
0.000000
0
VERTEX
8
0
10
535.000000
20
517.000000
30
0.000000
0
VERTEX
8
0
10
540.000000
20
511.000000
30
0.000000
0
VERTEX
8
0
10
540.000000
20
509.000000
30
0.000000
0
VERTEX
8
0
10
531.000000
20
502.000000
30
0.000000
0
VERTEX
8
0
10
511.000000
20
482.000000
30
0.000000
0
VERTEX
8
0
10
500.000000
20
466.000000
30
0.000000
0
VERTEX
8
0
10
490.000000
20
444.000000
30
0.000000
0
VERTEX
8
0
10
486.000000
20
423.000000
30
0.000000
0
VERTEX
8
0
10
486.000000
20
408.000000
30
0.000000
0
VERTEX
8
0
10
492.000000
20
380.000000
30
0.000000
0
VERTEX
8
0
10
496.000000
20
369.000000
30
0.000000
0
VERTEX
8
0
10
506.000000
20
350.000000
30
0.000000
0
VERTEX
8
0
10
515.000000
20
338.000000
30
0.000000
0
VERTEX
8
0
10
530.000000
20
323.000000
30
0.000000
0
VERTEX
8
0
10
546.000000
20
312.000000
30
0.000000
0
VERTEX
8
0
10
556.000000
20
308.000000
30
0.000000
0
VERTEX
8
0
10
556.000000
20
305.000000
30
0.000000
0
VERTEX
8
0
10
543.000000
20
275.000000
30
0.000000
0
VERTEX
8
0
10
527.000000
20
244.000000
30
0.000000
0
VERTEX
8
0
10
507.000000
20
214.000000
30
0.000000
0
VERTEX
8
0
10
493.000000
20
200.000000
30
0.000000
0
VERTEX
8
0
10
472.000000
20
183.000000
30
0.000000
0
VERTEX
8
0
10
452.000000
20
173.000000
30
0.000000
0
VERTEX
8
0
10
433.000000
20
173.000000
30
0.000000
0
VERTEX
8
0
10
413.000000
20
179.000000
30
0.000000
0
VERTEX
8
0
10
377.000000
20
193.000000
30
0.000000
0
VERTEX
8
0
10
350.000000
20
194.000000
30
0.000000
0
VERTEX
8
0
10
337.000000
20
191.000000
30
0.000000
0
VERTEX
8
0
10
294.000000
20
175.000000
30
0.000000
0
VERTEX
8
0
10
286.000000
20
173.000000
30
0.000000
0
VERTEX
8
0
10
265.000000
20
173.000000
30
0.000000
0
VERTEX
8
0
10
252.000000
20
178.000000
30
0.000000
0
VERTEX
8
0
10
236.000000
20
188.000000
30
0.000000
0
VERTEX
8
0
10
223.000000
20
199.000000
30
0.000000
0
VERTEX
8
0
10
211.000000
20
212.000000
30
0.000000
0
VERTEX
8
0
10
196.000000
20
232.000000
30
0.000000
0
VERTEX
8
0
10
173.000000
20
272.000000
30
0.000000
0
VERTEX
8
0
10
157.000000
20
312.000000
30
0.000000
0
VERTEX
8
0
10
148.000000
20
344.000000
30
0.000000
0
VERTEX
8
0
10
141.000000
20
388.000000
30
0.000000
0
VERTEX
8
0
10
142.000000
20
437.000000
30
0.000000
0
VERTEX
8
0
10
146.000000
20
456.000000
30
0.000000
0
VERTEX
8
0
10
153.000000
20
476.000000
30
0.000000
0
VERTEX
8
0
10
169.000000
20
504.000000
30
0.000000
0
VERTEX
8
0
10
190.000000
20
528.000000
30
0.000000
0
VERTEX
8
0
10
212.000000
20
544.000000
30
0.000000
0
VERTEX
8
0
10
233.000000
20
553.000000
30
0.000000
0
VERTEX
8
0
10
253.000000
20
557.000000
30
0.000000
0
VERTEX
8
0
10
284.000000
20
556.000000
30
0.000000
0
VERTEX
8
0
10
302.000000
20
551.000000
30
0.000000
0
VERTEX
8
0
10
339.000000
20
536.000000
30
0.000000
0
VERTEX
8
0
10
360.000000
20
536.000000
30
0.000000
0
VERTEX
8
0
10
374.000000
20
540.000000
30
0.000000
0
VERTEX
8
0
10
402.000000
20
552.000000
30
0.000000
0
VERTEX
8
0
10
429.000000
20
559.000000
30
0.000000
0
SEQEND
0
ENDSEC
0
EOF
