0
SECTION
2
HEADER
9
$ACADVER
1
AC1003
9
$EXTMIN
10
0.000000
20
0.000000
9
$EXTMAX
10
845.000000
20
1199.000000
9
$LIMMIN
10
0.000000
20
0.000000
9
$LIMMAX
10
845.000000
20
1199.000000
0
ENDSEC
0
SECTION
2
TABLES
0
TABLE
2
LAYER
70
1
0
LAYER
2
0
70
64
62
3
6
CONTINUOUS
0
ENDTAB
0
ENDSEC
0
SECTION
2
BLOCKS
0
ENDSEC
0
SECTION
2
ENTITIES
0
POLYLINE
8
0
6
CONTINUOUS
66
1
10
0.0
20
0.0
30
0.000000
0
VERTEX
8
0
10
453.000000
20
1135.000000
30
0.000000
0
VERTEX
8
0
10
458.000000
20
1135.000000
30
0.000000
0
VERTEX
8
0
10
464.000000
20
1132.000000
30
0.000000
0
VERTEX
8
0
10
474.000000
20
1122.000000
30
0.000000
0
VERTEX
8
0
10
483.000000
20
1110.000000
30
0.000000
0
VERTEX
8
0
10
524.000000
20
1039.000000
30
0.000000
0
VERTEX
8
0
10
530.000000
20
1043.000000
30
0.000000
0
VERTEX
8
0
10
544.000000
20
1057.000000
30
0.000000
0
VERTEX
8
0
10
546.000000
20
1055.000000
30
0.000000
0
VERTEX
8
0
10
546.000000
20
1031.000000
30
0.000000
0
VERTEX
8
0
10
542.000000
20
1016.000000
30
0.000000
0
VERTEX
8
0
10
543.000000
20
1009.000000
30
0.000000
0
VERTEX
8
0
10
563.000000
20
1010.000000
30
0.000000
0
VERTEX
8
0
10
579.000000
20
1007.000000
30
0.000000
0
VERTEX
8
0
10
580.000000
20
1004.000000
30
0.000000
0
VERTEX
8
0
10
585.000000
20
1006.000000
30
0.000000
0
VERTEX
8
0
10
584.000000
20
972.000000
30
0.000000
0
VERTEX
8
0
10
581.000000
20
954.000000
30
0.000000
0
VERTEX
8
0
10
579.000000
20
951.000000
30
0.000000
0
VERTEX
8
0
10
576.000000
20
934.000000
30
0.000000
0
VERTEX
8
0
10
570.000000
20
917.000000
30
0.000000
0
VERTEX
8
0
10
571.000000
20
914.000000
30
0.000000
0
VERTEX
8
0
10
584.000000
20
920.000000
30
0.000000
0
VERTEX
8
0
10
591.000000
20
921.000000
30
0.000000
0
VERTEX
8
0
10
591.000000
20
916.000000
30
0.000000
0
VERTEX
8
0
10
581.000000
20
903.000000
30
0.000000
0
VERTEX
8
0
10
581.000000
20
900.000000
30
0.000000
0
VERTEX
8
0
10
603.000000
20
901.000000
30
0.000000
0
VERTEX
8
0
10
612.000000
20
900.000000
30
0.000000
0
VERTEX
8
0
10
615.000000
20
897.000000
30
0.000000
0
VERTEX
8
0
10
611.000000
20
884.000000
30
0.000000
0
VERTEX
8
0
10
599.000000
20
860.000000
30
0.000000
0
VERTEX
8
0
10
584.000000
20
839.000000
30
0.000000
0
VERTEX
8
0
10
585.000000
20
837.000000
30
0.000000
0
VERTEX
8
0
10
601.000000
20
837.000000
30
0.000000
0
VERTEX
8
0
10
606.000000
20
835.000000
30
0.000000
0
VERTEX
8
0
10
606.000000
20
833.000000
30
0.000000
0
VERTEX
8
0
10
599.000000
20
826.000000
30
0.000000
0
VERTEX
8
0
10
590.000000
20
820.000000
30
0.000000
0
VERTEX
8
0
10
591.000000
20
794.000000
30
0.000000
0
VERTEX
8
0
10
589.000000
20
790.000000
30
0.000000
0
VERTEX
8
0
10
592.000000
20
787.000000
30
0.000000
0
VERTEX
8
0
10
601.000000
20
783.000000
30
0.000000
0
VERTEX
8
0
10
602.000000
20
780.000000
30
0.000000
0
VERTEX
8
0
10
580.000000
20
772.000000
30
0.000000
0
VERTEX
8
0
10
573.000000
20
763.000000
30
0.000000
0
VERTEX
8
0
10
610.000000
20
734.000000
30
0.000000
0
VERTEX
8
0
10
635.000000
20
717.000000
30
0.000000
0
VERTEX
8
0
10
654.000000
20
701.000000
30
0.000000
0
VERTEX
8
0
10
663.000000
20
683.000000
30
0.000000
0
VERTEX
8
0
10
663.000000
20
680.000000
30
0.000000
0
VERTEX
8
0
10
668.000000
20
669.000000
30
0.000000
0
VERTEX
8
0
10
669.000000
20
659.000000
30
0.000000
0
VERTEX
8
0
10
680.000000
20
627.000000
30
0.000000
0
VERTEX
8
0
10
680.000000
20
612.000000
30
0.000000
0
VERTEX
8
0
10
684.000000
20
603.000000
30
0.000000
0
VERTEX
8
0
10
689.000000
20
580.000000
30
0.000000
0
VERTEX
8
0
10
695.000000
20
594.000000
30
0.000000
0
VERTEX
8
0
10
696.000000
20
615.000000
30
0.000000
0
VERTEX
8
0
10
716.000000
20
589.000000
30
0.000000
0
VERTEX
8
0
10
721.000000
20
580.000000
30
0.000000
0
VERTEX
8
0
10
732.000000
20
550.000000
30
0.000000
0
VERTEX
8
0
10
737.000000
20
532.000000
30
0.000000
0
VERTEX
8
0
10
739.000000
20
506.000000
30
0.000000
0
VERTEX
8
0
10
734.000000
20
488.000000
30
0.000000
0
VERTEX
8
0
10
733.000000
20
478.000000
30
0.000000
0
VERTEX
8
0
10
730.000000
20
471.000000
30
0.000000
0
VERTEX
8
0
10
731.000000
20
470.000000
30
0.000000
0
VERTEX
8
0
10
750.000000
20
487.000000
30
0.000000
0
VERTEX
8
0
10
761.000000
20
502.000000
30
0.000000
0
VERTEX
8
0
10
763.000000
20
502.000000
30
0.000000
0
VERTEX
8
0
10
762.000000
20
480.000000
30
0.000000
0
VERTEX
8
0
10
751.000000
20
447.000000
30
0.000000
0
VERTEX
8
0
10
734.000000
20
424.000000
30
0.000000
0
VERTEX
8
0
10
719.000000
20
410.000000
30
0.000000
0
VERTEX
8
0
10
733.000000
20
407.000000
30
0.000000
0
VERTEX
8
0
10
744.000000
20
407.000000
30
0.000000
0
VERTEX
8
0
10
748.000000
20
405.000000
30
0.000000
0
VERTEX
8
0
10
748.000000
20
403.000000
30
0.000000
0
VERTEX
8
0
10
745.000000
20
403.000000
30
0.000000
0
VERTEX
8
0
10
734.000000
20
397.000000
30
0.000000
0
VERTEX
8
0
10
714.000000
20
391.000000
30
0.000000
0
VERTEX
8
0
10
709.000000
20
391.000000
30
0.000000
0
VERTEX
8
0
10
706.000000
20
387.000000
30
0.000000
0
VERTEX
8
0
10
708.000000
20
382.000000
30
0.000000
0
VERTEX
8
0
10
716.000000
20
376.000000
30
0.000000
0
VERTEX
8
0
10
716.000000
20
373.000000
30
0.000000
0
VERTEX
8
0
10
729.000000
20
362.000000
30
0.000000
0
VERTEX
8
0
10
731.000000
20
359.000000
30
0.000000
0
VERTEX
8
0
10
731.000000
20
353.000000
30
0.000000
0
VERTEX
8
0
10
723.000000
20
338.000000
30
0.000000
0
VERTEX
8
0
10
714.000000
20
330.000000
30
0.000000
0
VERTEX
8
0
10
712.000000
20
325.000000
30
0.000000
0
VERTEX
8
0
10
705.000000
20
318.000000
30
0.000000
0
VERTEX
8
0
10
694.000000
20
319.000000
30
0.000000
0
VERTEX
8
0
10
687.000000
20
322.000000
30
0.000000
0
VERTEX
8
0
10
685.000000
20
319.000000
30
0.000000
0
VERTEX
8
0
10
675.000000
20
316.000000
30
0.000000
0
VERTEX
8
0
10
668.000000
20
316.000000
30
0.000000
0
VERTEX
8
0
10
661.000000
20
319.000000
30
0.000000
0
VERTEX
8
0
10
650.000000
20
317.000000
30
0.000000
0
VERTEX
8
0
10
644.000000
20
318.000000
30
0.000000
0
VERTEX
8
0
10
630.000000
20
327.000000
30
0.000000
0
VERTEX
8
0
10
628.000000
20
347.000000
30
0.000000
0
VERTEX
8
0
10
625.000000
20
339.000000
30
0.000000
0
VERTEX
8
0
10
619.000000
20
334.000000
30
0.000000
0
VERTEX
8
0
10
606.000000
20
333.000000
30
0.000000
0
VERTEX
8
0
10
594.000000
20
342.000000
30
0.000000
0
VERTEX
8
0
10
596.000000
20
369.000000
30
0.000000
0
VERTEX
8
0
10
620.000000
20
393.000000
30
0.000000
0
VERTEX
8
0
10
597.000000
20
399.000000
30
0.000000
0
VERTEX
8
0
10
596.000000
20
397.000000
30
0.000000
0
VERTEX
8
0
10
600.000000
20
388.000000
30
0.000000
0
VERTEX
8
0
10
598.000000
20
386.000000
30
0.000000
0
VERTEX
8
0
10
583.000000
20
394.000000
30
0.000000
0
VERTEX
8
0
10
570.000000
20
405.000000
30
0.000000
0
VERTEX
8
0
10
568.000000
20
404.000000
30
0.000000
0
VERTEX
8
0
10
572.000000
20
364.000000
30
0.000000
0
VERTEX
8
0
10
572.000000
20
317.000000
30
0.000000
0
VERTEX
8
0
10
563.000000
20
304.000000
30
0.000000
0
VERTEX
8
0
10
551.000000
20
292.000000
30
0.000000
0
VERTEX
8
0
10
545.000000
20
279.000000
30
0.000000
0
VERTEX
8
0
10
544.000000
20
256.000000
30
0.000000
0
VERTEX
8
0
10
536.000000
20
225.000000
30
0.000000
0
VERTEX
8
0
10
526.000000
20
209.000000
30
0.000000
0
VERTEX
8
0
10
497.000000
20
172.000000
30
0.000000
0
VERTEX
8
0
10
489.000000
20
149.000000
30
0.000000
0
VERTEX
8
0
10
482.000000
20
142.000000
30
0.000000
0
VERTEX
8
0
10
480.000000
20
125.000000
30
0.000000
0
VERTEX
8
0
10
474.000000
20
105.000000
30
0.000000
0
VERTEX
8
0
10
473.000000
20
86.000000
30
0.000000
0
VERTEX
8
0
10
466.000000
20
74.000000
30
0.000000
0
VERTEX
8
0
10
457.000000
20
66.000000
30
0.000000
0
VERTEX
8
0
10
453.000000
20
66.000000
30
0.000000
0
VERTEX
8
0
10
448.000000
20
63.000000
30
0.000000
0
VERTEX
8
0
10
441.000000
20
63.000000
30
0.000000
0
VERTEX
8
0
10
438.000000
20
65.000000
30
0.000000
0
VERTEX
8
0
10
437.000000
20
68.000000
30
0.000000
0
VERTEX
8
0
10
423.000000
20
67.000000
30
0.000000
0
VERTEX
8
0
10
395.000000
20
76.000000
30
0.000000
0
VERTEX
8
0
10
380.000000
20
88.000000
30
0.000000
0
VERTEX
8
0
10
366.000000
20
106.000000
30
0.000000
0
VERTEX
8
0
10
361.000000
20
104.000000
30
0.000000
0
VERTEX
8
0
10
356.000000
20
105.000000
30
0.000000
0
VERTEX
8
0
10
354.000000
20
111.000000
30
0.000000
0
VERTEX
8
0
10
346.000000
20
117.000000
30
0.000000
0
VERTEX
8
0
10
343.000000
20
122.000000
30
0.000000
0
VERTEX
8
0
10
342.000000
20
132.000000
30
0.000000
0
VERTEX
8
0
10
353.000000
20
152.000000
30
0.000000
0
VERTEX
8
0
10
358.000000
20
158.000000
30
0.000000
0
VERTEX
8
0
10
380.000000
20
168.000000
30
0.000000
0
VERTEX
8
0
10
395.000000
20
181.000000
30
0.000000
0
VERTEX
8
0
10
398.000000
20
191.000000
30
0.000000
0
VERTEX
8
0
10
402.000000
20
198.000000
30
0.000000
0
VERTEX
8
0
10
402.000000
20
216.000000
30
0.000000
0
VERTEX
8
0
10
396.000000
20
252.000000
30
0.000000
0
VERTEX
8
0
10
399.000000
20
279.000000
30
0.000000
0
VERTEX
8
0
10
407.000000
20
298.000000
30
0.000000
0
VERTEX
8
0
10
401.000000
20
303.000000
30
0.000000
0
VERTEX
8
0
10
392.000000
20
317.000000
30
0.000000
0
VERTEX
8
0
10
383.000000
20
340.000000
30
0.000000
0
VERTEX
8
0
10
384.000000
20
345.000000
30
0.000000
0
VERTEX
8
0
10
382.000000
20
347.000000
30
0.000000
0
VERTEX
8
0
10
371.000000
20
348.000000
30
0.000000
0
VERTEX
8
0
10
358.000000
20
346.000000
30
0.000000
0
VERTEX
8
0
10
341.000000
20
335.000000
30
0.000000
0
VERTEX
8
0
10
325.000000
20
322.000000
30
0.000000
0
VERTEX
8
0
10
311.000000
20
307.000000
30
0.000000
0
VERTEX
8
0
10
317.000000
20
282.000000
30
0.000000
0
VERTEX
8
0
10
314.000000
20
233.000000
30
0.000000
0
VERTEX
8
0
10
317.000000
20
221.000000
30
0.000000
0
VERTEX
8
0
10
321.000000
20
214.000000
30
0.000000
0
VERTEX
8
0
10
328.000000
20
191.000000
30
0.000000
0
VERTEX
8
0
10
329.000000
20
179.000000
30
0.000000
0
VERTEX
8
0
10
305.000000
20
151.000000
30
0.000000
0
VERTEX
8
0
10
285.000000
20
137.000000
30
0.000000
0
VERTEX
8
0
10
272.000000
20
119.000000
30
0.000000
0
VERTEX
8
0
10
257.000000
20
114.000000
30
0.000000
0
VERTEX
8
0
10
251.000000
20
115.000000
30
0.000000
0
VERTEX
8
0
10
248.000000
20
114.000000
30
0.000000
0
VERTEX
8
0
10
245.000000
20
109.000000
30
0.000000
0
VERTEX
8
0
10
241.000000
20
109.000000
30
0.000000
0
VERTEX
8
0
10
237.000000
20
116.000000
30
0.000000
0
VERTEX
8
0
10
229.000000
20
115.000000
30
0.000000
0
VERTEX
8
0
10
225.000000
20
109.000000
30
0.000000
0
VERTEX
8
0
10
222.000000
20
110.000000
30
0.000000
0
VERTEX
8
0
10
218.000000
20
117.000000
30
0.000000
0
VERTEX
8
0
10
205.000000
20
119.000000
30
0.000000
0
VERTEX
8
0
10
204.000000
20
116.000000
30
0.000000
0
VERTEX
8
0
10
197.000000
20
116.000000
30
0.000000
0
VERTEX
8
0
10
191.000000
20
123.000000
30
0.000000
0
VERTEX
8
0
10
186.000000
20
125.000000
30
0.000000
0
VERTEX
8
0
10
182.000000
20
118.000000
30
0.000000
0
VERTEX
8
0
10
177.000000
20
120.000000
30
0.000000
0
VERTEX
8
0
10
176.000000
20
130.000000
30
0.000000
0
VERTEX
8
0
10
173.000000
20
134.000000
30
0.000000
0
VERTEX
8
0
10
170.000000
20
135.000000
30
0.000000
0
VERTEX
8
0
10
170.000000
20
143.000000
30
0.000000
0
VERTEX
8
0
10
172.000000
20
144.000000
30
0.000000
0
VERTEX
8
0
10
173.000000
20
139.000000
30
0.000000
0
VERTEX
8
0
10
176.000000
20
159.000000
30
0.000000
0
VERTEX
8
0
10
179.000000
20
164.000000
30
0.000000
0
VERTEX
8
0
10
189.000000
20
174.000000
30
0.000000
0
VERTEX
8
0
10
198.000000
20
193.000000
30
0.000000
0
VERTEX
8
0
10
209.000000
20
211.000000
30
0.000000
0
VERTEX
8
0
10
208.000000
20
218.000000
30
0.000000
0
VERTEX
8
0
10
183.000000
20
265.000000
30
0.000000
0
VERTEX
8
0
10
169.000000
20
301.000000
30
0.000000
0
VERTEX
8
0
10
167.000000
20
314.000000
30
0.000000
0
VERTEX
8
0
10
168.000000
20
325.000000
30
0.000000
0
VERTEX
8
0
10
167.000000
20
336.000000
30
0.000000
0
VERTEX
8
0
10
165.000000
20
339.000000
30
0.000000
0
VERTEX
8
0
10
151.000000
20
329.000000
30
0.000000
0
VERTEX
8
0
10
138.000000
20
322.000000
30
0.000000
0
VERTEX
8
0
10
123.000000
20
317.000000
30
0.000000
0
VERTEX
8
0
10
108.000000
20
318.000000
30
0.000000
0
VERTEX
8
0
10
104.000000
20
322.000000
30
0.000000
0
VERTEX
8
0
10
104.000000
20
331.000000
30
0.000000
0
VERTEX
8
0
10
107.000000
20
338.000000
30
0.000000
0
VERTEX
8
0
10
130.000000
20
368.000000
30
0.000000
0
VERTEX
8
0
10
162.000000
20
401.000000
30
0.000000
0
VERTEX
8
0
10
167.000000
20
414.000000
30
0.000000
0
VERTEX
8
0
10
183.000000
20
428.000000
30
0.000000
0
VERTEX
8
0
10
182.000000
20
431.000000
30
0.000000
0
VERTEX
8
0
10
193.000000
20
450.000000
30
0.000000
0
VERTEX
8
0
10
217.000000
20
463.000000
30
0.000000
0
VERTEX
8
0
10
237.000000
20
490.000000
30
0.000000
0
VERTEX
8
0
10
251.000000
20
506.000000
30
0.000000
0
VERTEX
8
0
10
264.000000
20
518.000000
30
0.000000
0
VERTEX
8
0
10
261.000000
20
538.000000
30
0.000000
0
VERTEX
8
0
10
253.000000
20
547.000000
30
0.000000
0
VERTEX
8
0
10
246.000000
20
561.000000
30
0.000000
0
VERTEX
8
0
10
211.000000
20
566.000000
30
0.000000
0
VERTEX
8
0
10
196.000000
20
557.000000
30
0.000000
0
VERTEX
8
0
10
182.000000
20
552.000000
30
0.000000
0
VERTEX
8
0
10
168.000000
20
556.000000
30
0.000000
0
VERTEX
8
0
10
149.000000
20
555.000000
30
0.000000
0
VERTEX
8
0
10
144.000000
20
556.000000
30
0.000000
0
VERTEX
8
0
10
130.000000
20
563.000000
30
0.000000
0
VERTEX
8
0
10
121.000000
20
570.000000
30
0.000000
0
VERTEX
8
0
10
110.000000
20
584.000000
30
0.000000
0
VERTEX
8
0
10
105.000000
20
597.000000
30
0.000000
0
VERTEX
8
0
10
104.000000
20
615.000000
30
0.000000
0
VERTEX
8
0
10
107.000000
20
629.000000
30
0.000000
0
VERTEX
8
0
10
115.000000
20
644.000000
30
0.000000
0
VERTEX
8
0
10
124.000000
20
653.000000
30
0.000000
0
VERTEX
8
0
10
133.000000
20
659.000000
30
0.000000
0
VERTEX
8
0
10
149.000000
20
665.000000
30
0.000000
0
VERTEX
8
0
10
151.000000
20
667.000000
30
0.000000
0
VERTEX
8
0
10
137.000000
20
704.000000
30
0.000000
0
VERTEX
8
0
10
137.000000
20
707.000000
30
0.000000
0
VERTEX
8
0
10
143.000000
20
715.000000
30
0.000000
0
VERTEX
8
0
10
188.000000
20
713.000000
30
0.000000
0
VERTEX
8
0
10
195.000000
20
714.000000
30
0.000000
0
VERTEX
8
0
10
224.000000
20
711.000000
30
0.000000
0
VERTEX
8
0
10
240.000000
20
729.000000
30
0.000000
0
VERTEX
8
0
10
291.000000
20
753.000000
30
0.000000
0
VERTEX
8
0
10
293.000000
20
757.000000
30
0.000000
0
VERTEX
8
0
10
288.000000
20
767.000000
30
0.000000
0
VERTEX
8
0
10
285.000000
20
780.000000
30
0.000000
0
VERTEX
8
0
10
275.000000
20
789.000000
30
0.000000
0
VERTEX
8
0
10
269.000000
20
792.000000
30
0.000000
0
VERTEX
8
0
10
285.000000
20
796.000000
30
0.000000
0
VERTEX
8
0
10
271.000000
20
813.000000
30
0.000000
0
VERTEX
8
0
10
256.000000
20
839.000000
30
0.000000
0
VERTEX
8
0
10
249.000000
20
856.000000
30
0.000000
0
VERTEX
8
0
10
258.000000
20
859.000000
30
0.000000
0
VERTEX
8
0
10
272.000000
20
869.000000
30
0.000000
0
VERTEX
8
0
10
263.000000
20
878.000000
30
0.000000
0
VERTEX
8
0
10
260.000000
20
885.000000
30
0.000000
0
VERTEX
8
0
10
274.000000
20
887.000000
30
0.000000
0
VERTEX
8
0
10
274.000000
20
898.000000
30
0.000000
0
VERTEX
8
0
10
267.000000
20
911.000000
30
0.000000
0
VERTEX
8
0
10
253.000000
20
920.000000
30
0.000000
0
VERTEX
8
0
10
264.000000
20
930.000000
30
0.000000
0
VERTEX
8
0
10
260.000000
20
934.000000
30
0.000000
0
VERTEX
8
0
10
246.000000
20
940.000000
30
0.000000
0
VERTEX
8
0
10
238.000000
20
946.000000
30
0.000000
0
VERTEX
8
0
10
239.000000
20
950.000000
30
0.000000
0
VERTEX
8
0
10
256.000000
20
950.000000
30
0.000000
0
VERTEX
8
0
10
257.000000
20
952.000000
30
0.000000
0
VERTEX
8
0
10
240.000000
20
975.000000
30
0.000000
0
VERTEX
8
0
10
229.000000
20
997.000000
30
0.000000
0
VERTEX
8
0
10
225.000000
20
1016.000000
30
0.000000
0
VERTEX
8
0
10
223.000000
20
1042.000000
30
0.000000
0
VERTEX
8
0
10
224.000000
20
1057.000000
30
0.000000
0
VERTEX
8
0
10
228.000000
20
1061.000000
30
0.000000
0
VERTEX
8
0
10
238.000000
20
1061.000000
30
0.000000
0
VERTEX
8
0
10
274.000000
20
1043.000000
30
0.000000
0
VERTEX
8
0
10
303.000000
20
1034.000000
30
0.000000
0
VERTEX
8
0
10
320.000000
20
1033.000000
30
0.000000
0
VERTEX
8
0
10
340.000000
20
1038.000000
30
0.000000
0
VERTEX
8
0
10
329.000000
20
1046.000000
30
0.000000
0
VERTEX
8
0
10
345.000000
20
1046.000000
30
0.000000
0
VERTEX
8
0
10
346.000000
20
1048.000000
30
0.000000
0
VERTEX
8
0
10
333.000000
20
1070.000000
30
0.000000
0
VERTEX
8
0
10
327.000000
20
1094.000000
30
0.000000
0
VERTEX
8
0
10
329.000000
20
1094.000000
30
0.000000
0
VERTEX
8
0
10
351.000000
20
1076.000000
30
0.000000
0
VERTEX
8
0
10
366.000000
20
1070.000000
30
0.000000
0
VERTEX
8
0
10
404.000000
20
1060.000000
30
0.000000
0
VERTEX
8
0
10
405.000000
20
1061.000000
30
0.000000
0
VERTEX
8
0
10
397.000000
20
1076.000000
30
0.000000
0
VERTEX
8
0
10
400.000000
20
1076.000000
30
0.000000
0
VERTEX
8
0
10
416.000000
20
1066.000000
30
0.000000
0
VERTEX
8
0
10
425.000000
20
1063.000000
30
0.000000
0
VERTEX
8
0
10
429.000000
20
1070.000000
30
0.000000
0
VERTEX
8
0
10
431.000000
20
1083.000000
30
0.000000
0
VERTEX
8
0
10
444.000000
20
1124.000000
30
0.000000
0
VERTEX
8
0
10
449.000000
20
1133.000000
30
0.000000
0
VERTEX
8
0
10
453.000000
20
1135.000000
30
0.000000
0
SEQEND
0
POLYLINE
8
0
6
CONTINUOUS
66
1
10
0.0
20
0.0
30
0.000000
0
VERTEX
8
0
10
459.000000
20
1130.000000
30
0.000000
0
VERTEX
8
0
10
457.000000
20
1131.000000
30
0.000000
0
VERTEX
8
0
10
450.000000
20
1126.000000
30
0.000000
0
VERTEX
8
0
10
437.000000
20
1092.000000
30
0.000000
0
VERTEX
8
0
10
431.000000
20
1069.000000
30
0.000000
0
VERTEX
8
0
10
430.000000
20
1058.000000
30
0.000000
0
VERTEX
8
0
10
427.000000
20
1048.000000
30
0.000000
0
VERTEX
8
0
10
426.000000
20
1015.000000
30
0.000000
0
VERTEX
8
0
10
435.000000
20
997.000000
30
0.000000
0
VERTEX
8
0
10
430.000000
20
999.000000
30
0.000000
0
VERTEX
8
0
10
424.000000
20
1011.000000
30
0.000000
0
VERTEX
8
0
10
422.000000
20
1028.000000
30
0.000000
0
VERTEX
8
0
10
423.000000
20
1029.000000
30
0.000000
0
VERTEX
8
0
10
414.000000
20
1032.000000
30
0.000000
0
VERTEX
8
0
10
394.000000
20
1044.000000
30
0.000000
0
VERTEX
8
0
10
408.000000
20
1046.000000
30
0.000000
0
VERTEX
8
0
10
423.000000
20
1046.000000
30
0.000000
0
VERTEX
8
0
10
425.000000
20
1053.000000
30
0.000000
0
VERTEX
8
0
10
422.000000
20
1059.000000
30
0.000000
0
VERTEX
8
0
10
421.000000
20
1058.000000
30
0.000000
0
VERTEX
8
0
10
420.000000
20
1060.000000
30
0.000000
0
VERTEX
8
0
10
412.000000
20
1063.000000
30
0.000000
0
VERTEX
8
0
10
410.000000
20
1061.000000
30
0.000000
0
VERTEX
8
0
10
415.000000
20
1052.000000
30
0.000000
0
VERTEX
8
0
10
408.000000
20
1053.000000
30
0.000000
0
VERTEX
8
0
10
390.000000
20
1060.000000
30
0.000000
0
VERTEX
8
0
10
373.000000
20
1063.000000
30
0.000000
0
VERTEX
8
0
10
361.000000
20
1067.000000
30
0.000000
0
VERTEX
8
0
10
359.000000
20
1066.000000
30
0.000000
0
VERTEX
8
0
10
358.000000
20
1068.000000
30
0.000000
0
VERTEX
8
0
10
348.000000
20
1072.000000
30
0.000000
0
VERTEX
8
0
10
338.000000
20
1080.000000
30
0.000000
0
VERTEX
8
0
10
336.000000
20
1079.000000
30
0.000000
0
VERTEX
8
0
10
337.000000
20
1073.000000
30
0.000000
0
VERTEX
8
0
10
367.000000
20
1043.000000
30
0.000000
0
VERTEX
8
0
10
357.000000
20
1043.000000
30
0.000000
0
VERTEX
8
0
10
355.000000
20
1041.000000
30
0.000000
0
VERTEX
8
0
10
349.000000
20
1041.000000
30
0.000000
0
VERTEX
8
0
10
348.000000
20
1037.000000
30
0.000000
0
VERTEX
8
0
10
351.000000
20
1034.000000
30
0.000000
0
VERTEX
8
0
10
326.000000
20
1030.000000
30
0.000000
0
VERTEX
8
0
10
321.000000
20
1027.000000
30
0.000000
0
VERTEX
8
0
10
335.000000
20
1021.000000
30
0.000000
0
VERTEX
8
0
10
355.000000
20
1017.000000
30
0.000000
0
VERTEX
8
0
10
362.000000
20
1017.000000
30
0.000000
0
VERTEX
8
0
10
365.000000
20
1015.000000
30
0.000000
0
VERTEX
8
0
10
349.000000
20
1015.000000
30
0.000000
0
VERTEX
8
0
10
333.000000
20
1019.000000
30
0.000000
0
VERTEX
8
0
10
327.000000
20
1022.000000
30
0.000000
0
VERTEX
8
0
10
325.000000
20
1022.000000
30
0.000000
0
VERTEX
8
0
10
324.000000
20
1020.000000
30
0.000000
0
VERTEX
8
0
10
327.000000
20
1015.000000
30
0.000000
0
VERTEX
8
0
10
338.000000
20
1004.000000
30
0.000000
0
VERTEX
8
0
10
345.000000
20
1000.000000
30
0.000000
0
VERTEX
8
0
10
346.000000
20
996.000000
30
0.000000
0
VERTEX
8
0
10
342.000000
20
997.000000
30
0.000000
0
VERTEX
8
0
10
326.000000
20
1013.000000
30
0.000000
0
VERTEX
8
0
10
318.000000
20
1028.000000
30
0.000000
0
VERTEX
8
0
10
310.000000
20
1027.000000
30
0.000000
0
VERTEX
8
0
10
301.000000
20
1023.000000
30
0.000000
0
VERTEX
8
0
10
280.000000
20
1019.000000
30
0.000000
0
VERTEX
8
0
10
274.000000
20
1015.000000
30
0.000000
0
VERTEX
8
0
10
288.000000
20
1008.000000
30
0.000000
0
VERTEX
8
0
10
308.000000
20
1009.000000
30
0.000000
0
VERTEX
8
0
10
323.000000
20
1004.000000
30
0.000000
0
VERTEX
8
0
10
322.000000
20
1002.000000
30
0.000000
0
VERTEX
8
0
10
307.000000
20
998.000000
30
0.000000
0
VERTEX
8
0
10
295.000000
20
990.000000
30
0.000000
0
VERTEX
8
0
10
299.000000
20
988.000000
30
0.000000
0
VERTEX
8
0
10
285.000000
20
969.000000
30
0.000000
0
VERTEX
8
0
10
273.000000
20
946.000000
30
0.000000
0
VERTEX
8
0
10
298.000000
20
942.000000
30
0.000000
0
VERTEX
8
0
10
305.000000
20
939.000000
30
0.000000
0
VERTEX
8
0
10
316.000000
20
926.000000
30
0.000000
0
VERTEX
8
0
10
320.000000
20
916.000000
30
0.000000
0
VERTEX
8
0
10
319.000000
20
911.000000
30
0.000000
0
VERTEX
8
0
10
308.000000
20
911.000000
30
0.000000
0
VERTEX
8
0
10
319.000000
20
897.000000
30
0.000000
0
VERTEX
8
0
10
322.000000
20
889.000000
30
0.000000
0
VERTEX
8
0
10
317.000000
20
887.000000
30
0.000000
0
VERTEX
8
0
10
314.000000
20
884.000000
30
0.000000
0
VERTEX
8
0
10
314.000000
20
882.000000
30
0.000000
0
VERTEX
8
0
10
317.000000
20
879.000000
30
0.000000
0
VERTEX
8
0
10
326.000000
20
879.000000
30
0.000000
0
VERTEX
8
0
10
329.000000
20
874.000000
30
0.000000
0
VERTEX
8
0
10
319.000000
20
863.000000
30
0.000000
0
VERTEX
8
0
10
316.000000
20
862.000000
30
0.000000
0
VERTEX
8
0
10
303.000000
20
847.000000
30
0.000000
0
VERTEX
8
0
10
300.000000
20
840.000000
30
0.000000
0
VERTEX
8
0
10
301.000000
20
839.000000
30
0.000000
0
VERTEX
8
0
10
317.000000
20
845.000000
30
0.000000
0
VERTEX
8
0
10
345.000000
20
846.000000
30
0.000000
0
VERTEX
8
0
10
348.000000
20
844.000000
30
0.000000
0
VERTEX
8
0
10
350.000000
20
840.000000
30
0.000000
0
VERTEX
8
0
10
350.000000
20
830.000000
30
0.000000
0
VERTEX
8
0
10
335.000000
20
815.000000
30
0.000000
0
VERTEX
8
0
10
331.000000
20
809.000000
30
0.000000
0
VERTEX
8
0
10
324.000000
20
809.000000
30
0.000000
0
VERTEX
8
0
10
313.000000
20
814.000000
30
0.000000
0
VERTEX
8
0
10
300.000000
20
826.000000
30
0.000000
0
VERTEX
8
0
10
300.000000
20
836.000000
30
0.000000
0
VERTEX
8
0
10
298.000000
20
837.000000
30
0.000000
0
VERTEX
8
0
10
298.000000
20
841.000000
30
0.000000
0
VERTEX
8
0
10
308.000000
20
863.000000
30
0.000000
0
VERTEX
8
0
10
306.000000
20
864.000000
30
0.000000
0
VERTEX
8
0
10
294.000000
20
887.000000
30
0.000000
0
VERTEX
8
0
10
292.000000
20
893.000000
30
0.000000
0
VERTEX
8
0
10
292.000000
20
901.000000
30
0.000000
0
VERTEX
8
0
10
285.000000
20
905.000000
30
0.000000
0
VERTEX
8
0
10
278.000000
20
897.000000
30
0.000000
0
VERTEX
8
0
10
280.000000
20
885.000000
30
0.000000
0
VERTEX
8
0
10
276.000000
20
882.000000
30
0.000000
0
VERTEX
8
0
10
274.000000
20
883.000000
30
0.000000
0
VERTEX
8
0
10
269.000000
20
880.000000
30
0.000000
0
VERTEX
8
0
10
269.000000
20
878.000000
30
0.000000
0
VERTEX
8
0
10
275.000000
20
872.000000
30
0.000000
0
VERTEX
8
0
10
276.000000
20
867.000000
30
0.000000
0
VERTEX
8
0
10
270.000000
20
861.000000
30
0.000000
0
VERTEX
8
0
10
255.000000
20
854.000000
30
0.000000
0
VERTEX
8
0
10
254.000000
20
850.000000
30
0.000000
0
VERTEX
8
0
10
275.000000
20
813.000000
30
0.000000
0
VERTEX
8
0
10
292.000000
20
794.000000
30
0.000000
0
VERTEX
8
0
10
291.000000
20
791.000000
30
0.000000
0
VERTEX
8
0
10
285.000000
20
791.000000
30
0.000000
0
VERTEX
8
0
10
281.000000
20
789.000000
30
0.000000
0
VERTEX
8
0
10
293.000000
20
779.000000
30
0.000000
0
VERTEX
8
0
10
311.000000
20
768.000000
30
0.000000
0
VERTEX
8
0
10
323.000000
20
764.000000
30
0.000000
0
VERTEX
8
0
10
332.000000
20
748.000000
30
0.000000
0
VERTEX
8
0
10
336.000000
20
744.000000
30
0.000000
0
VERTEX
8
0
10
354.000000
20
739.000000
30
0.000000
0
VERTEX
8
0
10
382.000000
20
739.000000
30
0.000000
0
VERTEX
8
0
10
403.000000
20
744.000000
30
0.000000
0
VERTEX
8
0
10
450.000000
20
769.000000
30
0.000000
0
VERTEX
8
0
10
462.000000
20
774.000000
30
0.000000
0
VERTEX
8
0
10
469.000000
20
775.000000
30
0.000000
0
VERTEX
8
0
10
480.000000
20
782.000000
30
0.000000
0
VERTEX
8
0
10
505.000000
20
785.000000
30
0.000000
0
VERTEX
8
0
10
507.000000
20
787.000000
30
0.000000
0
VERTEX
8
0
10
494.000000
20
793.000000
30
0.000000
0
VERTEX
8
0
10
494.000000
20
796.000000
30
0.000000
0
VERTEX
8
0
10
504.000000
20
812.000000
30
0.000000
0
VERTEX
8
0
10
516.000000
20
824.000000
30
0.000000
0
VERTEX
8
0
10
525.000000
20
830.000000
30
0.000000
0
VERTEX
8
0
10
536.000000
20
834.000000
30
0.000000
0
VERTEX
8
0
10
548.000000
20
834.000000
30
0.000000
0
VERTEX
8
0
10
556.000000
20
846.000000
30
0.000000
0
VERTEX
8
0
10
562.000000
20
859.000000
30
0.000000
0
VERTEX
8
0
10
561.000000
20
861.000000
30
0.000000
0
VERTEX
8
0
10
554.000000
20
861.000000
30
0.000000
0
VERTEX
8
0
10
541.000000
20
865.000000
30
0.000000
0
VERTEX
8
0
10
521.000000
20
877.000000
30
0.000000
0
VERTEX
8
0
10
511.000000
20
879.000000
30
0.000000
0
VERTEX
8
0
10
516.000000
20
888.000000
30
0.000000
0
VERTEX
8
0
10
520.000000
20
901.000000
30
0.000000
0
VERTEX
8
0
10
518.000000
20
902.000000
30
0.000000
0
VERTEX
8
0
10
508.000000
20
896.000000
30
0.000000
0
VERTEX
8
0
10
506.000000
20
897.000000
30
0.000000
0
VERTEX
8
0
10
515.000000
20
904.000000
30
0.000000
0
VERTEX
8
0
10
519.000000
20
906.000000
30
0.000000
0
VERTEX
8
0
10
524.000000
20
905.000000
30
0.000000
0
VERTEX
8
0
10
519.000000
20
887.000000
30
0.000000
0
VERTEX
8
0
10
516.000000
20
882.000000
30
0.000000
0
VERTEX
8
0
10
529.000000
20
877.000000
30
0.000000
0
VERTEX
8
0
10
537.000000
20
872.000000
30
0.000000
0
VERTEX
8
0
10
544.000000
20
865.000000
30
0.000000
0
VERTEX
8
0
10
560.000000
20
864.000000
30
0.000000
0
VERTEX
8
0
10
565.000000
20
862.000000
30
0.000000
0
VERTEX
8
0
10
561.000000
20
850.000000
30
0.000000
0
VERTEX
8
0
10
554.000000
20
838.000000
30
0.000000
0
VERTEX
8
0
10
554.000000
20
835.000000
30
0.000000
0
VERTEX
8
0
10
561.000000
20
832.000000
30
0.000000
0
VERTEX
8
0
10
572.000000
20
824.000000
30
0.000000
0
VERTEX
8
0
10
576.000000
20
817.000000
30
0.000000
0
VERTEX
8
0
10
593.000000
20
828.000000
30
0.000000
0
VERTEX
8
0
10
590.000000
20
832.000000
30
0.000000
0
VERTEX
8
0
10
567.000000
20
831.000000
30
0.000000
0
VERTEX
8
0
10
563.000000
20
834.000000
30
0.000000
0
VERTEX
8
0
10
563.000000
20
839.000000
30
0.000000
0
VERTEX
8
0
10
565.000000
20
842.000000
30
0.000000
0
VERTEX
8
0
10
589.000000
20
854.000000
30
0.000000
0
VERTEX
8
0
10
606.000000
20
883.000000
30
0.000000
0
VERTEX
8
0
10
607.000000
20
889.000000
30
0.000000
0
VERTEX
8
0
10
609.000000
20
891.000000
30
0.000000
0
VERTEX
8
0
10
609.000000
20
897.000000
30
0.000000
0
VERTEX
8
0
10
575.000000
20
897.000000
30
0.000000
0
VERTEX
8
0
10
574.000000
20
901.000000
30
0.000000
0
VERTEX
8
0
10
579.000000
20
906.000000
30
0.000000
0
VERTEX
8
0
10
582.000000
20
912.000000
30
0.000000
0
VERTEX
8
0
10
575.000000
20
912.000000
30
0.000000
0
VERTEX
8
0
10
568.000000
20
907.000000
30
0.000000
0
VERTEX
8
0
10
564.000000
20
906.000000
30
0.000000
0
VERTEX
8
0
10
563.000000
20
908.000000
30
0.000000
0
VERTEX
8
0
10
558.000000
20
908.000000
30
0.000000
0
VERTEX
8
0
10
554.000000
20
912.000000
30
0.000000
0
VERTEX
8
0
10
553.000000
20
930.000000
30
0.000000
0
VERTEX
8
0
10
555.000000
20
935.000000
30
0.000000
0
VERTEX
8
0
10
568.000000
20
953.000000
30
0.000000
0
VERTEX
8
0
10
578.000000
20
962.000000
30
0.000000
0
VERTEX
8
0
10
578.000000
20
969.000000
30
0.000000
0
VERTEX
8
0
10
580.000000
20
974.000000
30
0.000000
0
VERTEX
8
0
10
580.000000
20
993.000000
30
0.000000
0
VERTEX
8
0
10
578.000000
20
996.000000
30
0.000000
0
VERTEX
8
0
10
573.000000
20
993.000000
30
0.000000
0
VERTEX
8
0
10
569.000000
20
994.000000
30
0.000000
0
VERTEX
8
0
10
572.000000
20
1002.000000
30
0.000000
0
VERTEX
8
0
10
570.000000
20
1004.000000
30
0.000000
0
VERTEX
8
0
10
554.000000
20
1005.000000
30
0.000000
0
VERTEX
8
0
10
542.000000
20
1003.000000
30
0.000000
0
VERTEX
8
0
10
537.000000
20
1007.000000
30
0.000000
0
VERTEX
8
0
10
535.000000
20
1004.000000
30
0.000000
0
VERTEX
8
0
10
535.000000
20
994.000000
30
0.000000
0
VERTEX
8
0
10
534.000000
20
992.000000
30
0.000000
0
VERTEX
8
0
10
532.000000
20
992.000000
30
0.000000
0
VERTEX
8
0
10
530.000000
20
1008.000000
30
0.000000
0
VERTEX
8
0
10
531.000000
20
1009.000000
30
0.000000
0
VERTEX
8
0
10
526.000000
20
1028.000000
30
0.000000
0
VERTEX
8
0
10
522.000000
20
1032.000000
30
0.000000
0
VERTEX
8
0
10
523.000000
20
1033.000000
30
0.000000
0
VERTEX
8
0
10
521.000000
20
1034.000000
30
0.000000
0
VERTEX
8
0
10
516.000000
20
1045.000000
30
0.000000
0
VERTEX
8
0
10
513.000000
20
1048.000000
30
0.000000
0
VERTEX
8
0
10
514.000000
20
1049.000000
30
0.000000
0
VERTEX
8
0
10
512.000000
20
1050.000000
30
0.000000
0
VERTEX
8
0
10
509.000000
20
1056.000000
30
0.000000
0
VERTEX
8
0
10
510.000000
20
1057.000000
30
0.000000
0
VERTEX
8
0
10
507.000000
20
1060.000000
30
0.000000
0
VERTEX
8
0
10
483.000000
20
1105.000000
30
0.000000
0
VERTEX
8
0
10
467.000000
20
1124.000000
30
0.000000
0
VERTEX
8
0
10
459.000000
20
1130.000000
30
0.000000
0
SEQEND
0
POLYLINE
8
0
6
CONTINUOUS
66
1
10
0.0
20
0.0
30
0.000000
0
VERTEX
8
0
10
465.000000
20
1108.000000
30
0.000000
0
VERTEX
8
0
10
468.000000
20
1106.000000
30
0.000000
0
VERTEX
8
0
10
479.000000
20
1088.000000
30
0.000000
0
VERTEX
8
0
10
466.000000
20
1104.000000
30
0.000000
0
VERTEX
8
0
10
464.000000
20
1107.000000
30
0.000000
0
VERTEX
8
0
10
465.000000
20
1108.000000
30
0.000000
0
SEQEND
0
POLYLINE
8
0
6
CONTINUOUS
66
1
10
0.0
20
0.0
30
0.000000
0
VERTEX
8
0
10
483.000000
20
1081.000000
30
0.000000
0
VERTEX
8
0
10
483.000000
20
1082.000000
30
0.000000
0
VERTEX
8
0
10
487.000000
20
1077.000000
30
0.000000
0
VERTEX
8
0
10
492.000000
20
1060.000000
30
0.000000
0
VERTEX
8
0
10
493.000000
20
1031.000000
30
0.000000
0
VERTEX
8
0
10
490.000000
20
1005.000000
30
0.000000
0
VERTEX
8
0
10
498.000000
20
999.000000
30
0.000000
0
VERTEX
8
0
10
514.000000
20
996.000000
30
0.000000
0
VERTEX
8
0
10
519.000000
20
981.000000
30
0.000000
0
VERTEX
8
0
10
514.000000
20
978.000000
30
0.000000
0
VERTEX
8
0
10
507.000000
20
978.000000
30
0.000000
0
VERTEX
8
0
10
499.000000
20
982.000000
30
0.000000
0
VERTEX
8
0
10
492.000000
20
990.000000
30
0.000000
0
VERTEX
8
0
10
487.000000
20
1002.000000
30
0.000000
0
VERTEX
8
0
10
487.000000
20
1017.000000
30
0.000000
0
VERTEX
8
0
10
491.000000
20
1042.000000
30
0.000000
0
VERTEX
8
0
10
488.000000
20
1063.000000
30
0.000000
0
VERTEX
8
0
10
483.000000
20
1081.000000
30
0.000000
0
SEQEND
0
POLYLINE
8
0
6
CONTINUOUS
66
1
10
0.0
20
0.0
30
0.000000
0
VERTEX
8
0
10
458.000000
20
1077.000000
30
0.000000
0
VERTEX
8
0
10
459.000000
20
1078.000000
30
0.000000
0
VERTEX
8
0
10
459.000000
20
1063.000000
30
0.000000
0
VERTEX
8
0
10
461.000000
20
1052.000000
30
0.000000
0
VERTEX
8
0
10
459.000000
20
1054.000000
30
0.000000
0
VERTEX
8
0
10
457.000000
20
1068.000000
30
0.000000
0
VERTEX
8
0
10
458.000000
20
1077.000000
30
0.000000
0
SEQEND
0
POLYLINE
8
0
6
CONTINUOUS
66
1
10
0.0
20
0.0
30
0.000000
0
VERTEX
8
0
10
439.000000
20
1062.000000
30
0.000000
0
VERTEX
8
0
10
447.000000
20
1058.000000
30
0.000000
0
VERTEX
8
0
10
459.000000
20
1048.000000
30
0.000000
0
VERTEX
8
0
10
439.000000
20
1062.000000
30
0.000000
0
SEQEND
0
POLYLINE
8
0
6
CONTINUOUS
66
1
10
0.0
20
0.0
30
0.000000
0
VERTEX
8
0
10
236.000000
20
1057.000000
30
0.000000
0
VERTEX
8
0
10
235.000000
20
1058.000000
30
0.000000
0
VERTEX
8
0
10
231.000000
20
1058.000000
30
0.000000
0
VERTEX
8
0
10
227.000000
20
1054.000000
30
0.000000
0
VERTEX
8
0
10
230.000000
20
1016.000000
30
0.000000
0
VERTEX
8
0
10
233.000000
20
1007.000000
30
0.000000
0
VERTEX
8
0
10
232.000000
20
1005.000000
30
0.000000
0
VERTEX
8
0
10
236.000000
20
994.000000
30
0.000000
0
VERTEX
8
0
10
252.000000
20
980.000000
30
0.000000
0
VERTEX
8
0
10
264.000000
20
972.000000
30
0.000000
0
VERTEX
8
0
10
277.000000
20
966.000000
30
0.000000
0
VERTEX
8
0
10
289.000000
20
982.000000
30
0.000000
0
VERTEX
8
0
10
288.000000
20
985.000000
30
0.000000
0
VERTEX
8
0
10
282.000000
20
986.000000
30
0.000000
0
VERTEX
8
0
10
281.000000
20
989.000000
30
0.000000
0
VERTEX
8
0
10
287.000000
20
993.000000
30
0.000000
0
VERTEX
8
0
10
296.000000
20
996.000000
30
0.000000
0
VERTEX
8
0
10
297.000000
20
999.000000
30
0.000000
0
VERTEX
8
0
10
286.000000
20
1003.000000
30
0.000000
0
VERTEX
8
0
10
266.000000
20
1014.000000
30
0.000000
0
VERTEX
8
0
10
262.000000
20
1020.000000
30
0.000000
0
VERTEX
8
0
10
269.000000
20
1023.000000
30
0.000000
0
VERTEX
8
0
10
280.000000
20
1023.000000
30
0.000000
0
VERTEX
8
0
10
299.000000
20
1027.000000
30
0.000000
0
VERTEX
8
0
10
302.000000
20
1029.000000
30
0.000000
0
VERTEX
8
0
10
298.000000
20
1032.000000
30
0.000000
0
VERTEX
8
0
10
287.000000
20
1034.000000
30
0.000000
0
VERTEX
8
0
10
267.000000
20
1043.000000
30
0.000000
0
VERTEX
8
0
10
264.000000
20
1043.000000
30
0.000000
0
VERTEX
8
0
10
236.000000
20
1057.000000
30
0.000000
0
SEQEND
0
POLYLINE
8
0
6
CONTINUOUS
66
1
10
0.0
20
0.0
30
0.000000
0
VERTEX
8
0
10
436.000000
20
1055.000000
30
0.000000
0
VERTEX
8
0
10
437.000000
20
1057.000000
30
0.000000
0
VERTEX
8
0
10
439.000000
20
1036.000000
30
0.000000
0
VERTEX
8
0
10
443.000000
20
1021.000000
30
0.000000
0
VERTEX
8
0
10
452.000000
20
1010.000000
30
0.000000
0
VERTEX
8
0
10
459.000000
20
1005.000000
30
0.000000
0
VERTEX
8
0
10
455.000000
20
1005.000000
30
0.000000
0
VERTEX
8
0
10
450.000000
20
1002.000000
30
0.000000
0
VERTEX
8
0
10
455.000000
20
998.000000
30
0.000000
0
VERTEX
8
0
10
442.000000
20
986.000000
30
0.000000
0
VERTEX
8
0
10
443.000000
20
984.000000
30
0.000000
0
VERTEX
8
0
10
469.000000
20
985.000000
30
0.000000
0
VERTEX
8
0
10
459.000000
20
982.000000
30
0.000000
0
VERTEX
8
0
10
441.000000
20
983.000000
30
0.000000
0
VERTEX
8
0
10
442.000000
20
989.000000
30
0.000000
0
VERTEX
8
0
10
450.000000
20
997.000000
30
0.000000
0
VERTEX
8
0
10
444.000000
20
1002.000000
30
0.000000
0
VERTEX
8
0
10
453.000000
20
1005.000000
30
0.000000
0
VERTEX
8
0
10
454.000000
20
1007.000000
30
0.000000
0
VERTEX
8
0
10
444.000000
20
1017.000000
30
0.000000
0
VERTEX
8
0
10
438.000000
20
1032.000000
30
0.000000
0
VERTEX
8
0
10
436.000000
20
1055.000000
30
0.000000
0
SEQEND
0
POLYLINE
8
0
6
CONTINUOUS
66
1
10
0.0
20
0.0
30
0.000000
0
VERTEX
8
0
10
540.000000
20
1044.000000
30
0.000000
0
VERTEX
8
0
10
539.000000
20
1045.000000
30
0.000000
0
VERTEX
8
0
10
529.000000
20
1037.000000
30
0.000000
0
VERTEX
8
0
10
528.000000
20
1031.000000
30
0.000000
0
VERTEX
8
0
10
530.000000
20
1030.000000
30
0.000000
0
VERTEX
8
0
10
535.000000
20
1013.000000
30
0.000000
0
VERTEX
8
0
10
537.000000
20
1015.000000
30
0.000000
0
VERTEX
8
0
10
542.000000
20
1040.000000
30
0.000000
0
VERTEX
8
0
10
540.000000
20
1044.000000
30
0.000000
0
SEQEND
0
POLYLINE
8
0
6
CONTINUOUS
66
1
10
0.0
20
0.0
30
0.000000
0
VERTEX
8
0
10
410.000000
20
965.000000
30
0.000000
0
VERTEX
8
0
10
423.000000
20
965.000000
30
0.000000
0
VERTEX
8
0
10
442.000000
20
959.000000
30
0.000000
0
VERTEX
8
0
10
451.000000
20
941.000000
30
0.000000
0
VERTEX
8
0
10
451.000000
20
937.000000
30
0.000000
0
VERTEX
8
0
10
448.000000
20
934.000000
30
0.000000
0
VERTEX
8
0
10
428.000000
20
934.000000
30
0.000000
0
VERTEX
8
0
10
410.000000
20
930.000000
30
0.000000
0
VERTEX
8
0
10
410.000000
20
925.000000
30
0.000000
0
VERTEX
8
0
10
420.000000
20
925.000000
30
0.000000
0
VERTEX
8
0
10
425.000000
20
921.000000
30
0.000000
0
VERTEX
8
0
10
432.000000
20
906.000000
30
0.000000
0
VERTEX
8
0
10
432.000000
20
902.000000
30
0.000000
0
VERTEX
8
0
10
428.000000
20
901.000000
30
0.000000
0
VERTEX
8
0
10
424.000000
20
897.000000
30
0.000000
0
VERTEX
8
0
10
424.000000
20
895.000000
30
0.000000
0
VERTEX
8
0
10
427.000000
20
892.000000
30
0.000000
0
VERTEX
8
0
10
435.000000
20
892.000000
30
0.000000
0
VERTEX
8
0
10
437.000000
20
880.000000
30
0.000000
0
VERTEX
8
0
10
435.000000
20
874.000000
30
0.000000
0
VERTEX
8
0
10
432.000000
20
871.000000
30
0.000000
0
VERTEX
8
0
10
426.000000
20
869.000000
30
0.000000
0
VERTEX
8
0
10
422.000000
20
870.000000
30
0.000000
0
VERTEX
8
0
10
415.000000
20
876.000000
30
0.000000
0
VERTEX
8
0
10
403.000000
20
905.000000
30
0.000000
0
VERTEX
8
0
10
403.000000
20
921.000000
30
0.000000
0
VERTEX
8
0
10
393.000000
20
912.000000
30
0.000000
0
VERTEX
8
0
10
387.000000
20
910.000000
30
0.000000
0
VERTEX
8
0
10
389.000000
20
921.000000
30
0.000000
0
VERTEX
8
0
10
389.000000
20
924.000000
30
0.000000
0
VERTEX
8
0
10
385.000000
20
931.000000
30
0.000000
0
VERTEX
8
0
10
387.000000
20
954.000000
30
0.000000
0
VERTEX
8
0
10
390.000000
20
958.000000
30
0.000000
0
VERTEX
8
0
10
395.000000
20
961.000000
30
0.000000
0
VERTEX
8
0
10
410.000000
20
965.000000
30
0.000000
0
SEQEND
0
POLYLINE
8
0
6
CONTINUOUS
66
1
10
0.0
20
0.0
30
0.000000
0
VERTEX
8
0
10
424.000000
20
961.000000
30
0.000000
0
VERTEX
8
0
10
423.000000
20
962.000000
30
0.000000
0
VERTEX
8
0
10
405.000000
20
961.000000
30
0.000000
0
VERTEX
8
0
10
391.000000
20
956.000000
30
0.000000
0
VERTEX
8
0
10
389.000000
20
952.000000
30
0.000000
0
VERTEX
8
0
10
389.000000
20
946.000000
30
0.000000
0
VERTEX
8
0
10
397.000000
20
936.000000
30
0.000000
0
VERTEX
8
0
10
403.000000
20
934.000000
30
0.000000
0
VERTEX
8
0
10
404.000000
20
932.000000
30
0.000000
0
VERTEX
8
0
10
421.000000
20
935.000000
30
0.000000
0
VERTEX
8
0
10
448.000000
20
937.000000
30
0.000000
0
VERTEX
8
0
10
449.000000
20
939.000000
30
0.000000
0
VERTEX
8
0
10
443.000000
20
953.000000
30
0.000000
0
VERTEX
8
0
10
439.000000
20
957.000000
30
0.000000
0
VERTEX
8
0
10
429.000000
20
961.000000
30
0.000000
0
VERTEX
8
0
10
424.000000
20
961.000000
30
0.000000
0
SEQEND
0
POLYLINE
8
0
6
CONTINUOUS
66
1
10
0.0
20
0.0
30
0.000000
0
VERTEX
8
0
10
280.000000
20
941.000000
30
0.000000
0
VERTEX
8
0
10
279.000000
20
942.000000
30
0.000000
0
VERTEX
8
0
10
267.000000
20
941.000000
30
0.000000
0
VERTEX
8
0
10
264.000000
20
939.000000
30
0.000000
0
VERTEX
8
0
10
267.000000
20
929.000000
30
0.000000
0
VERTEX
8
0
10
260.000000
20
922.000000
30
0.000000
0
VERTEX
8
0
10
261.000000
20
920.000000
30
0.000000
0
VERTEX
8
0
10
271.000000
20
917.000000
30
0.000000
0
VERTEX
8
0
10
302.000000
20
917.000000
30
0.000000
0
VERTEX
8
0
10
308.000000
20
915.000000
30
0.000000
0
VERTEX
8
0
10
315.000000
20
915.000000
30
0.000000
0
VERTEX
8
0
10
316.000000
20
918.000000
30
0.000000
0
VERTEX
8
0
10
311.000000
20
927.000000
30
0.000000
0
VERTEX
8
0
10
301.000000
20
938.000000
30
0.000000
0
VERTEX
8
0
10
293.000000
20
941.000000
30
0.000000
0
VERTEX
8
0
10
280.000000
20
941.000000
30
0.000000
0
SEQEND
0
POLYLINE
8
0
6
CONTINUOUS
66
1
10
0.0
20
0.0
30
0.000000
0
VERTEX
8
0
10
427.000000
20
884.000000
30
0.000000
0
VERTEX
8
0
10
426.000000
20
885.000000
30
0.000000
0
VERTEX
8
0
10
423.000000
20
885.000000
30
0.000000
0
VERTEX
8
0
10
421.000000
20
881.000000
30
0.000000
0
VERTEX
8
0
10
422.000000
20
877.000000
30
0.000000
0
VERTEX
8
0
10
427.000000
20
874.000000
30
0.000000
0
VERTEX
8
0
10
431.000000
20
878.000000
30
0.000000
0
VERTEX
8
0
10
430.000000
20
882.000000
30
0.000000
0
VERTEX
8
0
10
427.000000
20
884.000000
30
0.000000
0
SEQEND
0
POLYLINE
8
0
6
CONTINUOUS
66
1
10
0.0
20
0.0
30
0.000000
0
VERTEX
8
0
10
462.000000
20
883.000000
30
0.000000
0
VERTEX
8
0
10
463.000000
20
884.000000
30
0.000000
0
VERTEX
8
0
10
463.000000
20
882.000000
30
0.000000
0
VERTEX
8
0
10
456.000000
20
877.000000
30
0.000000
0
VERTEX
8
0
10
462.000000
20
883.000000
30
0.000000
0
SEQEND
0
POLYLINE
8
0
6
CONTINUOUS
66
1
10
0.0
20
0.0
30
0.000000
0
VERTEX
8
0
10
454.000000
20
881.000000
30
0.000000
0
VERTEX
8
0
10
456.000000
20
882.000000
30
0.000000
0
VERTEX
8
0
10
452.000000
20
876.000000
30
0.000000
0
VERTEX
8
0
10
448.000000
20
874.000000
30
0.000000
0
VERTEX
8
0
10
454.000000
20
881.000000
30
0.000000
0
SEQEND
0
POLYLINE
8
0
6
CONTINUOUS
66
1
10
0.0
20
0.0
30
0.000000
0
VERTEX
8
0
10
318.000000
20
870.000000
30
0.000000
0
VERTEX
8
0
10
317.000000
20
871.000000
30
0.000000
0
VERTEX
8
0
10
315.000000
20
871.000000
30
0.000000
0
VERTEX
8
0
10
314.000000
20
870.000000
30
0.000000
0
VERTEX
8
0
10
316.000000
20
869.000000
30
0.000000
0
VERTEX
8
0
10
314.000000
20
870.000000
30
0.000000
0
VERTEX
8
0
10
313.000000
20
868.000000
30
0.000000
0
VERTEX
8
0
10
315.000000
20
866.000000
30
0.000000
0
VERTEX
8
0
10
318.000000
20
868.000000
30
0.000000
0
VERTEX
8
0
10
318.000000
20
870.000000
30
0.000000
0
SEQEND
0
POLYLINE
8
0
6
CONTINUOUS
66
1
10
0.0
20
0.0
30
0.000000
0
VERTEX
8
0
10
168.000000
20
850.000000
30
0.000000
0
VERTEX
8
0
10
170.000000
20
849.000000
30
0.000000
0
VERTEX
8
0
10
180.000000
20
812.000000
30
0.000000
0
VERTEX
8
0
10
182.000000
20
799.000000
30
0.000000
0
VERTEX
8
0
10
190.000000
20
787.000000
30
0.000000
0
VERTEX
8
0
10
190.000000
20
779.000000
30
0.000000
0
VERTEX
8
0
10
187.000000
20
775.000000
30
0.000000
0
VERTEX
8
0
10
174.000000
20
774.000000
30
0.000000
0
VERTEX
8
0
10
160.000000
20
781.000000
30
0.000000
0
VERTEX
8
0
10
157.000000
20
787.000000
30
0.000000
0
VERTEX
8
0
10
158.000000
20
799.000000
30
0.000000
0
VERTEX
8
0
10
164.000000
20
803.000000
30
0.000000
0
VERTEX
8
0
10
174.000000
20
804.000000
30
0.000000
0
VERTEX
8
0
10
171.000000
20
824.000000
30
0.000000
0
VERTEX
8
0
10
168.000000
20
826.000000
30
0.000000
0
VERTEX
8
0
10
159.000000
20
815.000000
30
0.000000
0
VERTEX
8
0
10
147.000000
20
795.000000
30
0.000000
0
VERTEX
8
0
10
155.000000
20
771.000000
30
0.000000
0
VERTEX
8
0
10
154.000000
20
760.000000
30
0.000000
0
VERTEX
8
0
10
146.000000
20
755.000000
30
0.000000
0
VERTEX
8
0
10
131.000000
20
755.000000
30
0.000000
0
VERTEX
8
0
10
118.000000
20
762.000000
30
0.000000
0
VERTEX
8
0
10
116.000000
20
766.000000
30
0.000000
0
VERTEX
8
0
10
117.000000
20
772.000000
30
0.000000
0
VERTEX
8
0
10
121.000000
20
776.000000
30
0.000000
0
VERTEX
8
0
10
134.000000
20
781.000000
30
0.000000
0
VERTEX
8
0
10
140.000000
20
780.000000
30
0.000000
0
VERTEX
8
0
10
143.000000
20
777.000000
30
0.000000
0
VERTEX
8
0
10
145.000000
20
778.000000
30
0.000000
0
VERTEX
8
0
10
145.000000
20
782.000000
30
0.000000
0
VERTEX
8
0
10
141.000000
20
793.000000
30
0.000000
0
VERTEX
8
0
10
134.000000
20
805.000000
30
0.000000
0
VERTEX
8
0
10
132.000000
20
806.000000
30
0.000000
0
VERTEX
8
0
10
135.000000
20
813.000000
30
0.000000
0
VERTEX
8
0
10
168.000000
20
850.000000
30
0.000000
0
SEQEND
0
POLYLINE
8
0
6
CONTINUOUS
66
1
10
0.0
20
0.0
30
0.000000
0
VERTEX
8
0
10
657.000000
20
835.000000
30
0.000000
0
VERTEX
8
0
10
659.000000
20
835.000000
30
0.000000
0
VERTEX
8
0
10
692.000000
20
800.000000
30
0.000000
0
VERTEX
8
0
10
684.000000
20
800.000000
30
0.000000
0
VERTEX
8
0
10
667.000000
20
816.000000
30
0.000000
0
VERTEX
8
0
10
666.000000
20
763.000000
30
0.000000
0
VERTEX
8
0
10
662.000000
20
757.000000
30
0.000000
0
VERTEX
8
0
10
658.000000
20
755.000000
30
0.000000
0
VERTEX
8
0
10
650.000000
20
755.000000
30
0.000000
0
VERTEX
8
0
10
638.000000
20
762.000000
30
0.000000
0
VERTEX
8
0
10
629.000000
20
771.000000
30
0.000000
0
VERTEX
8
0
10
624.000000
20
781.000000
30
0.000000
0
VERTEX
8
0
10
624.000000
20
791.000000
30
0.000000
0
VERTEX
8
0
10
626.000000
20
795.000000
30
0.000000
0
VERTEX
8
0
10
634.000000
20
799.000000
30
0.000000
0
VERTEX
8
0
10
641.000000
20
799.000000
30
0.000000
0
VERTEX
8
0
10
648.000000
20
796.000000
30
0.000000
0
VERTEX
8
0
10
658.000000
20
787.000000
30
0.000000
0
VERTEX
8
0
10
659.000000
20
811.000000
30
0.000000
0
VERTEX
8
0
10
657.000000
20
827.000000
30
0.000000
0
VERTEX
8
0
10
655.000000
20
830.000000
30
0.000000
0
VERTEX
8
0
10
655.000000
20
833.000000
30
0.000000
0
VERTEX
8
0
10
657.000000
20
835.000000
30
0.000000
0
SEQEND
0
POLYLINE
8
0
6
CONTINUOUS
66
1
10
0.0
20
0.0
30
0.000000
0
VERTEX
8
0
10
595.000000
20
830.000000
30
0.000000
0
VERTEX
8
0
10
593.000000
20
831.000000
30
0.000000
0
VERTEX
8
0
10
592.000000
20
830.000000
30
0.000000
0
VERTEX
8
0
10
595.000000
20
830.000000
30
0.000000
0
SEQEND
0
POLYLINE
8
0
6
CONTINUOUS
66
1
10
0.0
20
0.0
30
0.000000
0
VERTEX
8
0
10
296.000000
20
820.000000
30
0.000000
0
VERTEX
8
0
10
296.000000
20
823.000000
30
0.000000
0
VERTEX
8
0
10
299.000000
20
812.000000
30
0.000000
0
VERTEX
8
0
10
297.000000
20
814.000000
30
0.000000
0
VERTEX
8
0
10
296.000000
20
820.000000
30
0.000000
0
SEQEND
0
POLYLINE
8
0
6
CONTINUOUS
66
1
10
0.0
20
0.0
30
0.000000
0
VERTEX
8
0
10
545.000000
20
813.000000
30
0.000000
0
VERTEX
8
0
10
544.000000
20
814.000000
30
0.000000
0
VERTEX
8
0
10
539.000000
20
812.000000
30
0.000000
0
VERTEX
8
0
10
529.000000
20
803.000000
30
0.000000
0
VERTEX
8
0
10
520.000000
20
791.000000
30
0.000000
0
VERTEX
8
0
10
511.000000
20
771.000000
30
0.000000
0
VERTEX
8
0
10
509.000000
20
761.000000
30
0.000000
0
VERTEX
8
0
10
509.000000
20
744.000000
30
0.000000
0
VERTEX
8
0
10
511.000000
20
740.000000
30
0.000000
0
VERTEX
8
0
10
514.000000
20
748.000000
30
0.000000
0
VERTEX
8
0
10
535.000000
20
753.000000
30
0.000000
0
VERTEX
8
0
10
539.000000
20
756.000000
30
0.000000
0
VERTEX
8
0
10
539.000000
20
767.000000
30
0.000000
0
VERTEX
8
0
10
534.000000
20
772.000000
30
0.000000
0
VERTEX
8
0
10
517.000000
20
770.000000
30
0.000000
0
VERTEX
8
0
10
520.000000
20
781.000000
30
0.000000
0
VERTEX
8
0
10
528.000000
20
796.000000
30
0.000000
0
VERTEX
8
0
10
545.000000
20
813.000000
30
0.000000
0
SEQEND
0
POLYLINE
8
0
6
CONTINUOUS
66
1
10
0.0
20
0.0
30
0.000000
0
VERTEX
8
0
10
421.000000
20
809.000000
30
0.000000
0
VERTEX
8
0
10
424.000000
20
809.000000
30
0.000000
0
VERTEX
8
0
10
426.000000
20
805.000000
30
0.000000
0
VERTEX
8
0
10
419.000000
20
798.000000
30
0.000000
0
VERTEX
8
0
10
393.000000
20
787.000000
30
0.000000
0
VERTEX
8
0
10
371.000000
20
782.000000
30
0.000000
0
VERTEX
8
0
10
358.000000
20
781.000000
30
0.000000
0
VERTEX
8
0
10
376.000000
20
784.000000
30
0.000000
0
VERTEX
8
0
10
406.000000
20
795.000000
30
0.000000
0
VERTEX
8
0
10
416.000000
20
801.000000
30
0.000000
0
VERTEX
8
0
10
421.000000
20
809.000000
30
0.000000
0
SEQEND
0
POLYLINE
8
0
6
CONTINUOUS
66
1
10
0.0
20
0.0
30
0.000000
0
VERTEX
8
0
10
585.000000
20
807.000000
30
0.000000
0
VERTEX
8
0
10
583.000000
20
808.000000
30
0.000000
0
VERTEX
8
0
10
575.000000
20
798.000000
30
0.000000
0
VERTEX
8
0
10
574.000000
20
782.000000
30
0.000000
0
VERTEX
8
0
10
578.000000
20
779.000000
30
0.000000
0
VERTEX
8
0
10
584.000000
20
785.000000
30
0.000000
0
VERTEX
8
0
10
585.000000
20
807.000000
30
0.000000
0
SEQEND
0
POLYLINE
8
0
6
CONTINUOUS
66
1
10
0.0
20
0.0
30
0.000000
0
VERTEX
8
0
10
561.000000
20
786.000000
30
0.000000
0
VERTEX
8
0
10
560.000000
20
787.000000
30
0.000000
0
VERTEX
8
0
10
545.000000
20
773.000000
30
0.000000
0
VERTEX
8
0
10
541.000000
20
767.000000
30
0.000000
0
VERTEX
8
0
10
541.000000
20
759.000000
30
0.000000
0
VERTEX
8
0
10
546.000000
20
756.000000
30
0.000000
0
VERTEX
8
0
10
548.000000
20
758.000000
30
0.000000
0
VERTEX
8
0
10
547.000000
20
765.000000
30
0.000000
0
VERTEX
8
0
10
561.000000
20
786.000000
30
0.000000
0
SEQEND
0
POLYLINE
8
0
6
CONTINUOUS
66
1
10
0.0
20
0.0
30
0.000000
0
VERTEX
8
0
10
333.000000
20
783.000000
30
0.000000
0
VERTEX
8
0
10
343.000000
20
782.000000
30
0.000000
0
VERTEX
8
0
10
344.000000
20
781.000000
30
0.000000
0
VERTEX
8
0
10
341.000000
20
779.000000
30
0.000000
0
VERTEX
8
0
10
335.000000
20
779.000000
30
0.000000
0
VERTEX
8
0
10
333.000000
20
783.000000
30
0.000000
0
SEQEND
0
POLYLINE
8
0
6
CONTINUOUS
66
1
10
0.0
20
0.0
30
0.000000
0
VERTEX
8
0
10
480.000000
20
773.000000
30
0.000000
0
VERTEX
8
0
10
479.000000
20
774.000000
30
0.000000
0
VERTEX
8
0
10
479.000000
20
772.000000
30
0.000000
0
VERTEX
8
0
10
480.000000
20
773.000000
30
0.000000
0
SEQEND
0
POLYLINE
8
0
6
CONTINUOUS
66
1
10
0.0
20
0.0
30
0.000000
0
VERTEX
8
0
10
480.000000
20
770.000000
30
0.000000
0
VERTEX
8
0
10
479.000000
20
771.000000
30
0.000000
0
VERTEX
8
0
10
479.000000
20
769.000000
30
0.000000
0
VERTEX
8
0
10
480.000000
20
770.000000
30
0.000000
0
SEQEND
0
POLYLINE
8
0
6
CONTINUOUS
66
1
10
0.0
20
0.0
30
0.000000
0
VERTEX
8
0
10
472.000000
20
769.000000
30
0.000000
0
VERTEX
8
0
10
471.000000
20
770.000000
30
0.000000
0
VERTEX
8
0
10
471.000000
20
768.000000
30
0.000000
0
VERTEX
8
0
10
472.000000
20
769.000000
30
0.000000
0
SEQEND
0
POLYLINE
8
0
6
CONTINUOUS
66
1
10
0.0
20
0.0
30
0.000000
0
VERTEX
8
0
10
477.000000
20
769.000000
30
0.000000
0
VERTEX
8
0
10
476.000000
20
770.000000
30
0.000000
0
VERTEX
8
0
10
476.000000
20
768.000000
30
0.000000
0
VERTEX
8
0
10
477.000000
20
769.000000
30
0.000000
0
SEQEND
0
POLYLINE
8
0
6
CONTINUOUS
66
1
10
0.0
20
0.0
30
0.000000
0
VERTEX
8
0
10
294.000000
20
747.000000
30
0.000000
0
VERTEX
8
0
10
292.000000
20
748.000000
30
0.000000
0
VERTEX
8
0
10
289.000000
20
745.000000
30
0.000000
0
VERTEX
8
0
10
294.000000
20
745.000000
30
0.000000
0
VERTEX
8
0
10
294.000000
20
747.000000
30
0.000000
0
SEQEND
0
POLYLINE
8
0
6
CONTINUOUS
66
1
10
0.0
20
0.0
30
0.000000
0
VERTEX
8
0
10
587.000000
20
747.000000
30
0.000000
0
VERTEX
8
0
10
586.000000
20
748.000000
30
0.000000
0
VERTEX
8
0
10
585.000000
20
746.000000
30
0.000000
0
VERTEX
8
0
10
624.000000
20
708.000000
30
0.000000
0
VERTEX
8
0
10
634.000000
20
694.000000
30
0.000000
0
VERTEX
8
0
10
634.000000
20
688.000000
30
0.000000
0
VERTEX
8
0
10
657.000000
20
645.000000
30
0.000000
0
VERTEX
8
0
10
665.000000
20
627.000000
30
0.000000
0
VERTEX
8
0
10
670.000000
20
611.000000
30
0.000000
0
VERTEX
8
0
10
672.000000
20
609.000000
30
0.000000
0
VERTEX
8
0
10
677.000000
20
617.000000
30
0.000000
0
VERTEX
8
0
10
676.000000
20
629.000000
30
0.000000
0
VERTEX
8
0
10
664.000000
20
663.000000
30
0.000000
0
VERTEX
8
0
10
660.000000
20
681.000000
30
0.000000
0
VERTEX
8
0
10
653.000000
20
696.000000
30
0.000000
0
VERTEX
8
0
10
618.000000
20
725.000000
30
0.000000
0
VERTEX
8
0
10
603.000000
20
734.000000
30
0.000000
0
VERTEX
8
0
10
596.000000
20
741.000000
30
0.000000
0
VERTEX
8
0
10
587.000000
20
747.000000
30
0.000000
0
SEQEND
0
POLYLINE
8
0
6
CONTINUOUS
66
1
10
0.0
20
0.0
30
0.000000
0
VERTEX
8
0
10
484.000000
20
744.000000
30
0.000000
0
VERTEX
8
0
10
483.000000
20
745.000000
30
0.000000
0
VERTEX
8
0
10
476.000000
20
742.000000
30
0.000000
0
VERTEX
8
0
10
460.000000
20
730.000000
30
0.000000
0
VERTEX
8
0
10
455.000000
20
729.000000
30
0.000000
0
VERTEX
8
0
10
449.000000
20
724.000000
30
0.000000
0
VERTEX
8
0
10
446.000000
20
724.000000
30
0.000000
0
VERTEX
8
0
10
444.000000
20
722.000000
30
0.000000
0
VERTEX
8
0
10
442.000000
20
723.000000
30
0.000000
0
VERTEX
8
0
10
441.000000
20
721.000000
30
0.000000
0
VERTEX
8
0
10
443.000000
20
720.000000
30
0.000000
0
VERTEX
8
0
10
439.000000
20
721.000000
30
0.000000
0
VERTEX
8
0
10
428.000000
20
716.000000
30
0.000000
0
VERTEX
8
0
10
428.000000
20
714.000000
30
0.000000
0
VERTEX
8
0
10
425.000000
20
715.000000
30
0.000000
0
VERTEX
8
0
10
424.000000
20
713.000000
30
0.000000
0
VERTEX
8
0
10
395.000000
20
706.000000
30
0.000000
0
VERTEX
8
0
10
392.000000
20
707.000000
30
0.000000
0
VERTEX
8
0
10
374.000000
20
705.000000
30
0.000000
0
VERTEX
8
0
10
353.000000
20
710.000000
30
0.000000
0
VERTEX
8
0
10
352.000000
20
712.000000
30
0.000000
0
VERTEX
8
0
10
348.000000
20
713.000000
30
0.000000
0
VERTEX
8
0
10
342.000000
20
721.000000
30
0.000000
0
VERTEX
8
0
10
342.000000
20
723.000000
30
0.000000
0
VERTEX
8
0
10
338.000000
20
726.000000
30
0.000000
0
VERTEX
8
0
10
331.000000
20
723.000000
30
0.000000
0
VERTEX
8
0
10
334.000000
20
719.000000
30
0.000000
0
VERTEX
8
0
10
335.000000
20
720.000000
30
0.000000
0
VERTEX
8
0
10
334.000000
20
718.000000
30
0.000000
0
VERTEX
8
0
10
338.000000
20
709.000000
30
0.000000
0
VERTEX
8
0
10
349.000000
20
699.000000
30
0.000000
0
VERTEX
8
0
10
362.000000
20
695.000000
30
0.000000
0
VERTEX
8
0
10
363.000000
20
693.000000
30
0.000000
0
VERTEX
8
0
10
365.000000
20
695.000000
30
0.000000
0
VERTEX
8
0
10
366.000000
20
692.000000
30
0.000000
0
VERTEX
8
0
10
367.000000
20
694.000000
30
0.000000
0
VERTEX
8
0
10
371.000000
20
691.000000
30
0.000000
0
VERTEX
8
0
10
381.000000
20
691.000000
30
0.000000
0
VERTEX
8
0
10
383.000000
20
693.000000
30
0.000000
0
VERTEX
8
0
10
387.000000
20
691.000000
30
0.000000
0
VERTEX
8
0
10
389.000000
20
693.000000
30
0.000000
0
VERTEX
8
0
10
399.000000
20
693.000000
30
0.000000
0
VERTEX
8
0
10
400.000000
20
695.000000
30
0.000000
0
VERTEX
8
0
10
408.000000
20
695.000000
30
0.000000
0
VERTEX
8
0
10
408.000000
20
697.000000
30
0.000000
0
VERTEX
8
0
10
409.000000
20
696.000000
30
0.000000
0
VERTEX
8
0
10
436.000000
20
707.000000
30
0.000000
0
VERTEX
8
0
10
450.000000
20
714.000000
30
0.000000
0
VERTEX
8
0
10
450.000000
20
716.000000
30
0.000000
0
VERTEX
8
0
10
452.000000
20
715.000000
30
0.000000
0
VERTEX
8
0
10
456.000000
20
719.000000
30
0.000000
0
VERTEX
8
0
10
460.000000
20
720.000000
30
0.000000
0
VERTEX
8
0
10
481.000000
20
734.000000
30
0.000000
0
VERTEX
8
0
10
480.000000
20
736.000000
30
0.000000
0
VERTEX
8
0
10
481.000000
20
734.000000
30
0.000000
0
VERTEX
8
0
10
485.000000
20
742.000000
30
0.000000
0
VERTEX
8
0
10
484.000000
20
744.000000
30
0.000000
0
SEQEND
0
POLYLINE
8
0
6
CONTINUOUS
66
1
10
0.0
20
0.0
30
0.000000
0
VERTEX
8
0
10
287.000000
20
743.000000
30
0.000000
0
VERTEX
8
0
10
289.000000
20
744.000000
30
0.000000
0
VERTEX
8
0
10
288.000000
20
746.000000
30
0.000000
0
VERTEX
8
0
10
284.000000
20
743.000000
30
0.000000
0
VERTEX
8
0
10
287.000000
20
743.000000
30
0.000000
0
SEQEND
0
POLYLINE
8
0
6
CONTINUOUS
66
1
10
0.0
20
0.0
30
0.000000
0
VERTEX
8
0
10
282.000000
20
741.000000
30
0.000000
0
VERTEX
8
0
10
280.000000
20
742.000000
30
0.000000
0
VERTEX
8
0
10
279.000000
20
741.000000
30
0.000000
0
VERTEX
8
0
10
282.000000
20
741.000000
30
0.000000
0
SEQEND
0
POLYLINE
8
0
6
CONTINUOUS
66
1
10
0.0
20
0.0
30
0.000000
0
VERTEX
8
0
10
566.000000
20
740.000000
30
0.000000
0
VERTEX
8
0
10
565.000000
20
741.000000
30
0.000000
0
VERTEX
8
0
10
561.000000
20
739.000000
30
0.000000
0
VERTEX
8
0
10
559.000000
20
733.000000
30
0.000000
0
VERTEX
8
0
10
577.000000
20
720.000000
30
0.000000
0
VERTEX
8
0
10
589.000000
20
707.000000
30
0.000000
0
VERTEX
8
0
10
609.000000
20
676.000000
30
0.000000
0
VERTEX
8
0
10
630.000000
20
634.000000
30
0.000000
0
VERTEX
8
0
10
643.000000
20
596.000000
30
0.000000
0
VERTEX
8
0
10
645.000000
20
594.000000
30
0.000000
0
VERTEX
8
0
10
653.000000
20
599.000000
30
0.000000
0
VERTEX
8
0
10
651.000000
20
603.000000
30
0.000000
0
VERTEX
8
0
10
651.000000
20
612.000000
30
0.000000
0
VERTEX
8
0
10
640.000000
20
640.000000
30
0.000000
0
VERTEX
8
0
10
620.000000
20
680.000000
30
0.000000
0
VERTEX
8
0
10
619.000000
20
685.000000
30
0.000000
0
VERTEX
8
0
10
596.000000
20
718.000000
30
0.000000
0
VERTEX
8
0
10
588.000000
20
725.000000
30
0.000000
0
VERTEX
8
0
10
581.000000
20
728.000000
30
0.000000
0
VERTEX
8
0
10
572.000000
20
737.000000
30
0.000000
0
VERTEX
8
0
10
566.000000
20
740.000000
30
0.000000
0
SEQEND
0
POLYLINE
8
0
6
CONTINUOUS
66
1
10
0.0
20
0.0
30
0.000000
0
VERTEX
8
0
10
277.000000
20
739.000000
30
0.000000
0
VERTEX
8
0
10
276.000000
20
740.000000
30
0.000000
0
VERTEX
8
0
10
276.000000
20
738.000000
30
0.000000
0
VERTEX
8
0
10
277.000000
20
739.000000
30
0.000000
0
SEQEND
0
POLYLINE
8
0
6
CONTINUOUS
66
1
10
0.0
20
0.0
30
0.000000
0
VERTEX
8
0
10
484.000000
20
738.000000
30
0.000000
0
VERTEX
8
0
10
483.000000
20
739.000000
30
0.000000
0
VERTEX
8
0
10
483.000000
20
737.000000
30
0.000000
0
VERTEX
8
0
10
484.000000
20
738.000000
30
0.000000
0
SEQEND
0
POLYLINE
8
0
6
CONTINUOUS
66
1
10
0.0
20
0.0
30
0.000000
0
VERTEX
8
0
10
273.000000
20
737.000000
30
0.000000
0
VERTEX
8
0
10
272.000000
20
738.000000
30
0.000000
0
VERTEX
8
0
10
272.000000
20
736.000000
30
0.000000
0
VERTEX
8
0
10
273.000000
20
737.000000
30
0.000000
0
SEQEND
0
POLYLINE
8
0
6
CONTINUOUS
66
1
10
0.0
20
0.0
30
0.000000
0
VERTEX
8
0
10
416.000000
20
737.000000
30
0.000000
0
VERTEX
8
0
10
415.000000
20
738.000000
30
0.000000
0
VERTEX
8
0
10
415.000000
20
736.000000
30
0.000000
0
VERTEX
8
0
10
416.000000
20
737.000000
30
0.000000
0
SEQEND
0
POLYLINE
8
0
6
CONTINUOUS
66
1
10
0.0
20
0.0
30
0.000000
0
VERTEX
8
0
10
267.000000
20
734.000000
30
0.000000
0
VERTEX
8
0
10
266.000000
20
735.000000
30
0.000000
0
VERTEX
8
0
10
266.000000
20
733.000000
30
0.000000
0
VERTEX
8
0
10
267.000000
20
734.000000
30
0.000000
0
SEQEND
0
POLYLINE
8
0
6
CONTINUOUS
66
1
10
0.0
20
0.0
30
0.000000
0
VERTEX
8
0
10
488.000000
20
733.000000
30
0.000000
0
VERTEX
8
0
10
487.000000
20
734.000000
30
0.000000
0
VERTEX
8
0
10
484.000000
20
731.000000
30
0.000000
0
VERTEX
8
0
10
494.000000
20
725.000000
30
0.000000
0
VERTEX
8
0
10
495.000000
20
727.000000
30
0.000000
0
VERTEX
8
0
10
488.000000
20
733.000000
30
0.000000
0
SEQEND
0
POLYLINE
8
0
6
CONTINUOUS
66
1
10
0.0
20
0.0
30
0.000000
0
VERTEX
8
0
10
262.000000
20
732.000000
30
0.000000
0
VERTEX
8
0
10
261.000000
20
733.000000
30
0.000000
0
VERTEX
8
0
10
261.000000
20
731.000000
30
0.000000
0
VERTEX
8
0
10
262.000000
20
732.000000
30
0.000000
0
SEQEND
0
POLYLINE
8
0
6
CONTINUOUS
66
1
10
0.0
20
0.0
30
0.000000
0
VERTEX
8
0
10
308.000000
20
731.000000
30
0.000000
0
VERTEX
8
0
10
307.000000
20
732.000000
30
0.000000
0
VERTEX
8
0
10
304.000000
20
732.000000
30
0.000000
0
VERTEX
8
0
10
275.000000
20
720.000000
30
0.000000
0
VERTEX
8
0
10
251.000000
20
708.000000
30
0.000000
0
VERTEX
8
0
10
248.000000
20
705.000000
30
0.000000
0
VERTEX
8
0
10
251.000000
20
701.000000
30
0.000000
0
VERTEX
8
0
10
251.000000
20
697.000000
30
0.000000
0
VERTEX
8
0
10
253.000000
20
695.000000
30
0.000000
0
VERTEX
8
0
10
252.000000
20
694.000000
30
0.000000
0
VERTEX
8
0
10
255.000000
20
686.000000
30
0.000000
0
VERTEX
8
0
10
261.000000
20
679.000000
30
0.000000
0
VERTEX
8
0
10
265.000000
20
671.000000
30
0.000000
0
VERTEX
8
0
10
267.000000
20
671.000000
30
0.000000
0
VERTEX
8
0
10
268.000000
20
669.000000
30
0.000000
0
VERTEX
8
0
10
267.000000
20
670.000000
30
0.000000
0
VERTEX
8
0
10
266.000000
20
668.000000
30
0.000000
0
VERTEX
8
0
10
270.000000
20
665.000000
30
0.000000
0
VERTEX
8
0
10
274.000000
20
657.000000
30
0.000000
0
VERTEX
8
0
10
278.000000
20
658.000000
30
0.000000
0
VERTEX
8
0
10
279.000000
20
669.000000
30
0.000000
0
VERTEX
8
0
10
281.000000
20
671.000000
30
0.000000
0
VERTEX
8
0
10
280.000000
20
673.000000
30
0.000000
0
VERTEX
8
0
10
286.000000
20
691.000000
30
0.000000
0
VERTEX
8
0
10
285.000000
20
694.000000
30
0.000000
0
VERTEX
8
0
10
287.000000
20
694.000000
30
0.000000
0
VERTEX
8
0
10
290.000000
20
709.000000
30
0.000000
0
VERTEX
8
0
10
295.000000
20
719.000000
30
0.000000
0
VERTEX
8
0
10
294.000000
20
720.000000
30
0.000000
0
VERTEX
8
0
10
300.000000
20
727.000000
30
0.000000
0
VERTEX
8
0
10
302.000000
20
725.000000
30
0.000000
0
VERTEX
8
0
10
302.000000
20
719.000000
30
0.000000
0
VERTEX
8
0
10
300.000000
20
717.000000
30
0.000000
0
VERTEX
8
0
10
301.000000
20
715.000000
30
0.000000
0
VERTEX
8
0
10
298.000000
20
709.000000
30
0.000000
0
VERTEX
8
0
10
300.000000
20
708.000000
30
0.000000
0
VERTEX
8
0
10
309.000000
20
714.000000
30
0.000000
0
VERTEX
8
0
10
308.000000
20
731.000000
30
0.000000
0
SEQEND
0
POLYLINE
8
0
6
CONTINUOUS
66
1
10
0.0
20
0.0
30
0.000000
0
VERTEX
8
0
10
259.000000
20
730.000000
30
0.000000
0
VERTEX
8
0
10
257.000000
20
731.000000
30
0.000000
0
VERTEX
8
0
10
256.000000
20
730.000000
30
0.000000
0
VERTEX
8
0
10
259.000000
20
730.000000
30
0.000000
0
SEQEND
0
POLYLINE
8
0
6
CONTINUOUS
66
1
10
0.0
20
0.0
30
0.000000
0
VERTEX
8
0
10
254.000000
20
728.000000
30
0.000000
0
VERTEX
8
0
10
253.000000
20
730.000000
30
0.000000
0
VERTEX
8
0
10
253.000000
20
727.000000
30
0.000000
0
VERTEX
8
0
10
254.000000
20
728.000000
30
0.000000
0
SEQEND
0
POLYLINE
8
0
6
CONTINUOUS
66
1
10
0.0
20
0.0
30
0.000000
0
VERTEX
8
0
10
250.000000
20
726.000000
30
0.000000
0
VERTEX
8
0
10
248.000000
20
727.000000
30
0.000000
0
VERTEX
8
0
10
246.000000
20
725.000000
30
0.000000
0
VERTEX
8
0
10
248.000000
20
724.000000
30
0.000000
0
VERTEX
8
0
10
250.000000
20
726.000000
30
0.000000
0
SEQEND
0
POLYLINE
8
0
6
CONTINUOUS
66
1
10
0.0
20
0.0
30
0.000000
0
VERTEX
8
0
10
496.000000
20
725.000000
30
0.000000
0
VERTEX
8
0
10
495.000000
20
726.000000
30
0.000000
0
VERTEX
8
0
10
495.000000
20
724.000000
30
0.000000
0
VERTEX
8
0
10
496.000000
20
725.000000
30
0.000000
0
SEQEND
0
POLYLINE
8
0
6
CONTINUOUS
66
1
10
0.0
20
0.0
30
0.000000
0
VERTEX
8
0
10
498.000000
20
724.000000
30
0.000000
0
VERTEX
8
0
10
497.000000
20
725.000000
30
0.000000
0
VERTEX
8
0
10
497.000000
20
723.000000
30
0.000000
0
VERTEX
8
0
10
498.000000
20
724.000000
30
0.000000
0
SEQEND
0
POLYLINE
8
0
6
CONTINUOUS
66
1
10
0.0
20
0.0
30
0.000000
0
VERTEX
8
0
10
244.000000
20
723.000000
30
0.000000
0
VERTEX
8
0
10
243.000000
20
724.000000
30
0.000000
0
VERTEX
8
0
10
243.000000
20
722.000000
30
0.000000
0
VERTEX
8
0
10
244.000000
20
723.000000
30
0.000000
0
SEQEND
0
POLYLINE
8
0
6
CONTINUOUS
66
1
10
0.0
20
0.0
30
0.000000
0
VERTEX
8
0
10
499.000000
20
723.000000
30
0.000000
0
VERTEX
8
0
10
498.000000
20
724.000000
30
0.000000
0
VERTEX
8
0
10
498.000000
20
722.000000
30
0.000000
0
VERTEX
8
0
10
499.000000
20
723.000000
30
0.000000
0
SEQEND
0
POLYLINE
8
0
6
CONTINUOUS
66
1
10
0.0
20
0.0
30
0.000000
0
VERTEX
8
0
10
501.000000
20
722.000000
30
0.000000
0
VERTEX
8
0
10
499.000000
20
723.000000
30
0.000000
0
VERTEX
8
0
10
498.000000
20
722.000000
30
0.000000
0
VERTEX
8
0
10
501.000000
20
720.000000
30
0.000000
0
VERTEX
8
0
10
501.000000
20
722.000000
30
0.000000
0
SEQEND
0
POLYLINE
8
0
6
CONTINUOUS
66
1
10
0.0
20
0.0
30
0.000000
0
VERTEX
8
0
10
504.000000
20
720.000000
30
0.000000
0
VERTEX
8
0
10
502.000000
20
721.000000
30
0.000000
0
VERTEX
8
0
10
501.000000
20
720.000000
30
0.000000
0
VERTEX
8
0
10
510.000000
20
714.000000
30
0.000000
0
VERTEX
8
0
10
512.000000
20
711.000000
30
0.000000
0
VERTEX
8
0
10
520.000000
20
707.000000
30
0.000000
0
VERTEX
8
0
10
544.000000
20
690.000000
30
0.000000
0
VERTEX
8
0
10
544.000000
20
686.000000
30
0.000000
0
VERTEX
8
0
10
537.000000
20
674.000000
30
0.000000
0
VERTEX
8
0
10
531.000000
20
657.000000
30
0.000000
0
VERTEX
8
0
10
529.000000
20
639.000000
30
0.000000
0
VERTEX
8
0
10
537.000000
20
630.000000
30
0.000000
0
VERTEX
8
0
10
539.000000
20
631.000000
30
0.000000
0
VERTEX
8
0
10
540.000000
20
626.000000
30
0.000000
0
VERTEX
8
0
10
546.000000
20
619.000000
30
0.000000
0
VERTEX
8
0
10
545.000000
20
617.000000
30
0.000000
0
VERTEX
8
0
10
548.000000
20
617.000000
30
0.000000
0
VERTEX
8
0
10
547.000000
20
614.000000
30
0.000000
0
VERTEX
8
0
10
549.000000
20
613.000000
30
0.000000
0
VERTEX
8
0
10
553.000000
20
598.000000
30
0.000000
0
VERTEX
8
0
10
555.000000
20
598.000000
30
0.000000
0
VERTEX
8
0
10
560.000000
20
583.000000
30
0.000000
0
VERTEX
8
0
10
562.000000
20
581.000000
30
0.000000
0
VERTEX
8
0
10
569.000000
20
580.000000
30
0.000000
0
VERTEX
8
0
10
573.000000
20
577.000000
30
0.000000
0
VERTEX
8
0
10
599.000000
20
578.000000
30
0.000000
0
VERTEX
8
0
10
621.000000
20
584.000000
30
0.000000
0
VERTEX
8
0
10
624.000000
20
587.000000
30
0.000000
0
VERTEX
8
0
10
618.000000
20
611.000000
30
0.000000
0
VERTEX
8
0
10
613.000000
20
626.000000
30
0.000000
0
VERTEX
8
0
10
604.000000
20
647.000000
30
0.000000
0
VERTEX
8
0
10
592.000000
20
669.000000
30
0.000000
0
VERTEX
8
0
10
569.000000
20
703.000000
30
0.000000
0
VERTEX
8
0
10
543.000000
20
721.000000
30
0.000000
0
VERTEX
8
0
10
534.000000
20
717.000000
30
0.000000
0
VERTEX
8
0
10
513.000000
20
716.000000
30
0.000000
0
VERTEX
8
0
10
511.000000
20
718.000000
30
0.000000
0
VERTEX
8
0
10
509.000000
20
717.000000
30
0.000000
0
VERTEX
8
0
10
508.000000
20
719.000000
30
0.000000
0
VERTEX
8
0
10
504.000000
20
720.000000
30
0.000000
0
SEQEND
0
POLYLINE
8
0
6
CONTINUOUS
66
1
10
0.0
20
0.0
30
0.000000
0
VERTEX
8
0
10
457.000000
20
718.000000
30
0.000000
0
VERTEX
8
0
10
456.000000
20
719.000000
30
0.000000
0
VERTEX
8
0
10
456.000000
20
717.000000
30
0.000000
0
VERTEX
8
0
10
457.000000
20
718.000000
30
0.000000
0
SEQEND
0
POLYLINE
8
0
6
CONTINUOUS
66
1
10
0.0
20
0.0
30
0.000000
0
VERTEX
8
0
10
409.000000
20
692.000000
30
0.000000
0
VERTEX
8
0
10
408.000000
20
693.000000
30
0.000000
0
VERTEX
8
0
10
401.000000
20
691.000000
30
0.000000
0
VERTEX
8
0
10
399.000000
20
689.000000
30
0.000000
0
VERTEX
8
0
10
396.000000
20
690.000000
30
0.000000
0
VERTEX
8
0
10
395.000000
20
688.000000
30
0.000000
0
VERTEX
8
0
10
375.000000
20
688.000000
30
0.000000
0
VERTEX
8
0
10
372.000000
20
690.000000
30
0.000000
0
VERTEX
8
0
10
364.000000
20
690.000000
30
0.000000
0
VERTEX
8
0
10
363.000000
20
688.000000
30
0.000000
0
VERTEX
8
0
10
362.000000
20
690.000000
30
0.000000
0
VERTEX
8
0
10
361.000000
20
686.000000
30
0.000000
0
VERTEX
8
0
10
369.000000
20
680.000000
30
0.000000
0
VERTEX
8
0
10
399.000000
20
679.000000
30
0.000000
0
VERTEX
8
0
10
408.000000
20
686.000000
30
0.000000
0
VERTEX
8
0
10
409.000000
20
692.000000
30
0.000000
0
SEQEND
0
POLYLINE
8
0
6
CONTINUOUS
66
1
10
0.0
20
0.0
30
0.000000
0
VERTEX
8
0
10
232.000000
20
662.000000
30
0.000000
0
VERTEX
8
0
10
231.000000
20
663.000000
30
0.000000
0
VERTEX
8
0
10
228.000000
20
660.000000
30
0.000000
0
VERTEX
8
0
10
235.000000
20
654.000000
30
0.000000
0
VERTEX
8
0
10
239.000000
20
654.000000
30
0.000000
0
VERTEX
8
0
10
238.000000
20
649.000000
30
0.000000
0
VERTEX
8
0
10
236.000000
20
648.000000
30
0.000000
0
VERTEX
8
0
10
228.000000
20
652.000000
30
0.000000
0
VERTEX
8
0
10
225.000000
20
649.000000
30
0.000000
0
VERTEX
8
0
10
233.000000
20
643.000000
30
0.000000
0
VERTEX
8
0
10
237.000000
20
642.000000
30
0.000000
0
VERTEX
8
0
10
244.000000
20
653.000000
30
0.000000
0
VERTEX
8
0
10
244.000000
20
656.000000
30
0.000000
0
VERTEX
8
0
10
232.000000
20
662.000000
30
0.000000
0
SEQEND
0
POLYLINE
8
0
6
CONTINUOUS
66
1
10
0.0
20
0.0
30
0.000000
0
VERTEX
8
0
10
267.000000
20
661.000000
30
0.000000
0
VERTEX
8
0
10
266.000000
20
662.000000
30
0.000000
0
VERTEX
8
0
10
266.000000
20
660.000000
30
0.000000
0
VERTEX
8
0
10
267.000000
20
661.000000
30
0.000000
0
SEQEND
0
POLYLINE
8
0
6
CONTINUOUS
66
1
10
0.0
20
0.0
30
0.000000
0
VERTEX
8
0
10
259.000000
20
660.000000
30
0.000000
0
VERTEX
8
0
10
258.000000
20
661.000000
30
0.000000
0
VERTEX
8
0
10
256.000000
20
661.000000
30
0.000000
0
VERTEX
8
0
10
252.000000
20
657.000000
30
0.000000
0
VERTEX
8
0
10
250.000000
20
650.000000
30
0.000000
0
VERTEX
8
0
10
253.000000
20
644.000000
30
0.000000
0
VERTEX
8
0
10
258.000000
20
624.000000
30
0.000000
0
VERTEX
8
0
10
260.000000
20
623.000000
30
0.000000
0
VERTEX
8
0
10
267.000000
20
628.000000
30
0.000000
0
VERTEX
8
0
10
259.000000
20
660.000000
30
0.000000
0
SEQEND
0
POLYLINE
8
0
6
CONTINUOUS
66
1
10
0.0
20
0.0
30
0.000000
0
VERTEX
8
0
10
265.000000
20
659.000000
30
0.000000
0
VERTEX
8
0
10
264.000000
20
661.000000
30
0.000000
0
VERTEX
8
0
10
264.000000
20
658.000000
30
0.000000
0
VERTEX
8
0
10
265.000000
20
659.000000
30
0.000000
0
SEQEND
0
POLYLINE
8
0
6
CONTINUOUS
66
1
10
0.0
20
0.0
30
0.000000
0
VERTEX
8
0
10
408.000000
20
659.000000
30
0.000000
0
VERTEX
8
0
10
407.000000
20
660.000000
30
0.000000
0
VERTEX
8
0
10
387.000000
20
659.000000
30
0.000000
0
VERTEX
8
0
10
381.000000
20
656.000000
30
0.000000
0
VERTEX
8
0
10
363.000000
20
653.000000
30
0.000000
0
VERTEX
8
0
10
355.000000
20
645.000000
30
0.000000
0
VERTEX
8
0
10
356.000000
20
643.000000
30
0.000000
0
VERTEX
8
0
10
355.000000
20
642.000000
30
0.000000
0
VERTEX
8
0
10
354.000000
20
644.000000
30
0.000000
0
VERTEX
8
0
10
343.000000
20
633.000000
30
0.000000
0
VERTEX
8
0
10
336.000000
20
619.000000
30
0.000000
0
VERTEX
8
0
10
337.000000
20
616.000000
30
0.000000
0
VERTEX
8
0
10
335.000000
20
616.000000
30
0.000000
0
VERTEX
8
0
10
334.000000
20
609.000000
30
0.000000
0
VERTEX
8
0
10
332.000000
20
606.000000
30
0.000000
0
VERTEX
8
0
10
332.000000
20
592.000000
30
0.000000
0
VERTEX
8
0
10
335.000000
20
580.000000
30
0.000000
0
VERTEX
8
0
10
341.000000
20
571.000000
30
0.000000
0
VERTEX
8
0
10
349.000000
20
564.000000
30
0.000000
0
VERTEX
8
0
10
349.000000
20
554.000000
30
0.000000
0
VERTEX
8
0
10
352.000000
20
547.000000
30
0.000000
0
VERTEX
8
0
10
359.000000
20
539.000000
30
0.000000
0
VERTEX
8
0
10
371.000000
20
534.000000
30
0.000000
0
VERTEX
8
0
10
391.000000
20
534.000000
30
0.000000
0
VERTEX
8
0
10
397.000000
20
535.000000
30
0.000000
0
VERTEX
8
0
10
405.000000
20
539.000000
30
0.000000
0
VERTEX
8
0
10
414.000000
20
547.000000
30
0.000000
0
VERTEX
8
0
10
417.000000
20
553.000000
30
0.000000
0
VERTEX
8
0
10
423.000000
20
558.000000
30
0.000000
0
VERTEX
8
0
10
431.000000
20
570.000000
30
0.000000
0
VERTEX
8
0
10
443.000000
20
580.000000
30
0.000000
0
VERTEX
8
0
10
447.000000
20
589.000000
30
0.000000
0
VERTEX
8
0
10
448.000000
20
597.000000
30
0.000000
0
VERTEX
8
0
10
451.000000
20
597.000000
30
0.000000
0
VERTEX
8
0
10
459.000000
20
593.000000
30
0.000000
0
VERTEX
8
0
10
466.000000
20
593.000000
30
0.000000
0
VERTEX
8
0
10
468.000000
20
595.000000
30
0.000000
0
VERTEX
8
0
10
468.000000
20
603.000000
30
0.000000
0
VERTEX
8
0
10
463.000000
20
613.000000
30
0.000000
0
VERTEX
8
0
10
435.000000
20
642.000000
30
0.000000
0
VERTEX
8
0
10
434.000000
20
645.000000
30
0.000000
0
VERTEX
8
0
10
424.000000
20
654.000000
30
0.000000
0
VERTEX
8
0
10
408.000000
20
659.000000
30
0.000000
0
SEQEND
0
POLYLINE
8
0
6
CONTINUOUS
66
1
10
0.0
20
0.0
30
0.000000
0
VERTEX
8
0
10
268.000000
20
657.000000
30
0.000000
0
VERTEX
8
0
10
266.000000
20
658.000000
30
0.000000
0
VERTEX
8
0
10
265.000000
20
656.000000
30
0.000000
0
VERTEX
8
0
10
268.000000
20
640.000000
30
0.000000
0
VERTEX
8
0
10
271.000000
20
635.000000
30
0.000000
0
VERTEX
8
0
10
271.000000
20
630.000000
30
0.000000
0
VERTEX
8
0
10
275.000000
20
623.000000
30
0.000000
0
VERTEX
8
0
10
280.000000
20
628.000000
30
0.000000
0
VERTEX
8
0
10
282.000000
20
628.000000
30
0.000000
0
VERTEX
8
0
10
278.000000
20
645.000000
30
0.000000
0
VERTEX
8
0
10
274.000000
20
649.000000
30
0.000000
0
VERTEX
8
0
10
272.000000
20
648.000000
30
0.000000
0
VERTEX
8
0
10
273.000000
20
650.000000
30
0.000000
0
VERTEX
8
0
10
268.000000
20
657.000000
30
0.000000
0
SEQEND
0
POLYLINE
8
0
6
CONTINUOUS
66
1
10
0.0
20
0.0
30
0.000000
0
VERTEX
8
0
10
386.000000
20
655.000000
30
0.000000
0
VERTEX
8
0
10
401.000000
20
654.000000
30
0.000000
0
VERTEX
8
0
10
423.000000
20
645.000000
30
0.000000
0
VERTEX
8
0
10
433.000000
20
637.000000
30
0.000000
0
VERTEX
8
0
10
423.000000
20
639.000000
30
0.000000
0
VERTEX
8
0
10
393.000000
20
639.000000
30
0.000000
0
VERTEX
8
0
10
366.000000
20
635.000000
30
0.000000
0
VERTEX
8
0
10
358.000000
20
632.000000
30
0.000000
0
VERTEX
8
0
10
355.000000
20
627.000000
30
0.000000
0
VERTEX
8
0
10
380.000000
20
607.000000
30
0.000000
0
VERTEX
8
0
10
388.000000
20
595.000000
30
0.000000
0
VERTEX
8
0
10
390.000000
20
588.000000
30
0.000000
0
VERTEX
8
0
10
372.000000
20
584.000000
30
0.000000
0
VERTEX
8
0
10
366.000000
20
581.000000
30
0.000000
0
VERTEX
8
0
10
356.000000
20
573.000000
30
0.000000
0
VERTEX
8
0
10
353.000000
20
568.000000
30
0.000000
0
VERTEX
8
0
10
351.000000
20
568.000000
30
0.000000
0
VERTEX
8
0
10
344.000000
20
577.000000
30
0.000000
0
VERTEX
8
0
10
340.000000
20
587.000000
30
0.000000
0
VERTEX
8
0
10
340.000000
20
614.000000
30
0.000000
0
VERTEX
8
0
10
347.000000
20
630.000000
30
0.000000
0
VERTEX
8
0
10
355.000000
20
639.000000
30
0.000000
0
VERTEX
8
0
10
371.000000
20
651.000000
30
0.000000
0
VERTEX
8
0
10
378.000000
20
654.000000
30
0.000000
0
VERTEX
8
0
10
386.000000
20
655.000000
30
0.000000
0
SEQEND
0
POLYLINE
8
0
6
CONTINUOUS
66
1
10
0.0
20
0.0
30
0.000000
0
VERTEX
8
0
10
250.000000
20
645.000000
30
0.000000
0
VERTEX
8
0
10
251.000000
20
647.000000
30
0.000000
0
VERTEX
8
0
10
249.000000
20
649.000000
30
0.000000
0
VERTEX
8
0
10
246.000000
20
645.000000
30
0.000000
0
VERTEX
8
0
10
247.000000
20
643.000000
30
0.000000
0
VERTEX
8
0
10
246.000000
20
645.000000
30
0.000000
0
VERTEX
8
0
10
235.000000
20
628.000000
30
0.000000
0
VERTEX
8
0
10
226.000000
20
611.000000
30
0.000000
0
VERTEX
8
0
10
225.000000
20
606.000000
30
0.000000
0
VERTEX
8
0
10
221.000000
20
601.000000
30
0.000000
0
VERTEX
8
0
10
222.000000
20
596.000000
30
0.000000
0
VERTEX
8
0
10
221.000000
20
597.000000
30
0.000000
0
VERTEX
8
0
10
220.000000
20
595.000000
30
0.000000
0
VERTEX
8
0
10
226.000000
20
583.000000
30
0.000000
0
VERTEX
8
0
10
229.000000
20
592.000000
30
0.000000
0
VERTEX
8
0
10
236.000000
20
604.000000
30
0.000000
0
VERTEX
8
0
10
257.000000
20
622.000000
30
0.000000
0
VERTEX
8
0
10
253.000000
20
639.000000
30
0.000000
0
VERTEX
8
0
10
252.000000
20
640.000000
30
0.000000
0
VERTEX
8
0
10
251.000000
20
638.000000
30
0.000000
0
VERTEX
8
0
10
252.000000
20
644.000000
30
0.000000
0
VERTEX
8
0
10
251.000000
20
645.000000
30
0.000000
0
VERTEX
8
0
10
249.000000
20
642.000000
30
0.000000
0
VERTEX
8
0
10
250.000000
20
645.000000
30
0.000000
0
SEQEND
0
POLYLINE
8
0
6
CONTINUOUS
66
1
10
0.0
20
0.0
30
0.000000
0
VERTEX
8
0
10
222.000000
20
643.000000
30
0.000000
0
VERTEX
8
0
10
221.000000
20
644.000000
30
0.000000
0
VERTEX
8
0
10
218.000000
20
640.000000
30
0.000000
0
VERTEX
8
0
10
220.000000
20
637.000000
30
0.000000
0
VERTEX
8
0
10
230.000000
20
631.000000
30
0.000000
0
VERTEX
8
0
10
234.000000
20
634.000000
30
0.000000
0
VERTEX
8
0
10
231.000000
20
638.000000
30
0.000000
0
VERTEX
8
0
10
222.000000
20
643.000000
30
0.000000
0
SEQEND
0
POLYLINE
8
0
6
CONTINUOUS
66
1
10
0.0
20
0.0
30
0.000000
0
VERTEX
8
0
10
395.000000
20
634.000000
30
0.000000
0
VERTEX
8
0
10
421.000000
20
634.000000
30
0.000000
0
VERTEX
8
0
10
439.000000
20
630.000000
30
0.000000
0
VERTEX
8
0
10
458.000000
20
610.000000
30
0.000000
0
VERTEX
8
0
10
462.000000
20
603.000000
30
0.000000
0
VERTEX
8
0
10
462.000000
20
598.000000
30
0.000000
0
VERTEX
8
0
10
427.000000
20
611.000000
30
0.000000
0
VERTEX
8
0
10
401.000000
20
616.000000
30
0.000000
0
VERTEX
8
0
10
392.000000
20
617.000000
30
0.000000
0
VERTEX
8
0
10
391.000000
20
615.000000
30
0.000000
0
VERTEX
8
0
10
406.000000
20
591.000000
30
0.000000
0
VERTEX
8
0
10
412.000000
20
570.000000
30
0.000000
0
VERTEX
8
0
10
413.000000
20
560.000000
30
0.000000
0
VERTEX
8
0
10
410.000000
20
551.000000
30
0.000000
0
VERTEX
8
0
10
398.000000
20
542.000000
30
0.000000
0
VERTEX
8
0
10
388.000000
20
539.000000
30
0.000000
0
VERTEX
8
0
10
375.000000
20
539.000000
30
0.000000
0
VERTEX
8
0
10
362.000000
20
544.000000
30
0.000000
0
VERTEX
8
0
10
356.000000
20
552.000000
30
0.000000
0
VERTEX
8
0
10
355.000000
20
559.000000
30
0.000000
0
VERTEX
8
0
10
358.000000
20
567.000000
30
0.000000
0
VERTEX
8
0
10
367.000000
20
575.000000
30
0.000000
0
VERTEX
8
0
10
378.000000
20
580.000000
30
0.000000
0
VERTEX
8
0
10
395.000000
20
580.000000
30
0.000000
0
VERTEX
8
0
10
398.000000
20
584.000000
30
0.000000
0
VERTEX
8
0
10
398.000000
20
587.000000
30
0.000000
0
VERTEX
8
0
10
390.000000
20
603.000000
30
0.000000
0
VERTEX
8
0
10
384.000000
20
611.000000
30
0.000000
0
VERTEX
8
0
10
364.000000
20
627.000000
30
0.000000
0
VERTEX
8
0
10
395.000000
20
634.000000
30
0.000000
0
SEQEND
0
POLYLINE
8
0
6
CONTINUOUS
66
1
10
0.0
20
0.0
30
0.000000
0
VERTEX
8
0
10
218.000000
20
633.000000
30
0.000000
0
VERTEX
8
0
10
216.000000
20
634.000000
30
0.000000
0
VERTEX
8
0
10
214.000000
20
631.000000
30
0.000000
0
VERTEX
8
0
10
219.000000
20
627.000000
30
0.000000
0
VERTEX
8
0
10
212.000000
20
625.000000
30
0.000000
0
VERTEX
8
0
10
214.000000
20
624.000000
30
0.000000
0
VERTEX
8
0
10
214.000000
20
620.000000
30
0.000000
0
VERTEX
8
0
10
222.000000
20
620.000000
30
0.000000
0
VERTEX
8
0
10
226.000000
20
622.000000
30
0.000000
0
VERTEX
8
0
10
228.000000
20
626.000000
30
0.000000
0
VERTEX
8
0
10
218.000000
20
633.000000
30
0.000000
0
SEQEND
0
POLYLINE
8
0
6
CONTINUOUS
66
1
10
0.0
20
0.0
30
0.000000
0
VERTEX
8
0
10
277.000000
20
622.000000
30
0.000000
0
VERTEX
8
0
10
275.000000
20
623.000000
30
0.000000
0
VERTEX
8
0
10
274.000000
20
622.000000
30
0.000000
0
VERTEX
8
0
10
276.000000
20
620.000000
30
0.000000
0
VERTEX
8
0
10
276.000000
20
614.000000
30
0.000000
0
VERTEX
8
0
10
281.000000
20
606.000000
30
0.000000
0
VERTEX
8
0
10
281.000000
20
602.000000
30
0.000000
0
VERTEX
8
0
10
286.000000
20
608.000000
30
0.000000
0
VERTEX
8
0
10
286.000000
20
617.000000
30
0.000000
0
VERTEX
8
0
10
284.000000
20
620.000000
30
0.000000
0
VERTEX
8
0
10
282.000000
20
619.000000
30
0.000000
0
VERTEX
8
0
10
277.000000
20
622.000000
30
0.000000
0
SEQEND
0
POLYLINE
8
0
6
CONTINUOUS
66
1
10
0.0
20
0.0
30
0.000000
0
VERTEX
8
0
10
218.000000
20
614.000000
30
0.000000
0
VERTEX
8
0
10
216.000000
20
615.000000
30
0.000000
0
VERTEX
8
0
10
215.000000
20
614.000000
30
0.000000
0
VERTEX
8
0
10
218.000000
20
609.000000
30
0.000000
0
VERTEX
8
0
10
220.000000
20
612.000000
30
0.000000
0
VERTEX
8
0
10
218.000000
20
614.000000
30
0.000000
0
SEQEND
0
POLYLINE
8
0
6
CONTINUOUS
66
1
10
0.0
20
0.0
30
0.000000
0
VERTEX
8
0
10
402.000000
20
609.000000
30
0.000000
0
VERTEX
8
0
10
402.000000
20
610.000000
30
0.000000
0
VERTEX
8
0
10
420.000000
20
607.000000
30
0.000000
0
VERTEX
8
0
10
443.000000
20
599.000000
30
0.000000
0
VERTEX
8
0
10
443.000000
20
589.000000
30
0.000000
0
VERTEX
8
0
10
420.000000
20
568.000000
30
0.000000
0
VERTEX
8
0
10
418.000000
20
568.000000
30
0.000000
0
VERTEX
8
0
10
416.000000
20
583.000000
30
0.000000
0
VERTEX
8
0
10
407.000000
20
602.000000
30
0.000000
0
VERTEX
8
0
10
402.000000
20
609.000000
30
0.000000
0
SEQEND
0
POLYLINE
8
0
6
CONTINUOUS
66
1
10
0.0
20
0.0
30
0.000000
0
VERTEX
8
0
10
286.000000
20
606.000000
30
0.000000
0
VERTEX
8
0
10
285.000000
20
607.000000
30
0.000000
0
VERTEX
8
0
10
285.000000
20
605.000000
30
0.000000
0
VERTEX
8
0
10
286.000000
20
606.000000
30
0.000000
0
SEQEND
0
POLYLINE
8
0
6
CONTINUOUS
66
1
10
0.0
20
0.0
30
0.000000
0
VERTEX
8
0
10
677.000000
20
606.000000
30
0.000000
0
VERTEX
8
0
10
675.000000
20
607.000000
30
0.000000
0
VERTEX
8
0
10
649.000000
20
590.000000
30
0.000000
0
VERTEX
8
0
10
621.000000
20
577.000000
30
0.000000
0
VERTEX
8
0
10
619.000000
20
578.000000
30
0.000000
0
VERTEX
8
0
10
603.000000
20
572.000000
30
0.000000
0
VERTEX
8
0
10
600.000000
20
573.000000
30
0.000000
0
VERTEX
8
0
10
599.000000
20
571.000000
30
0.000000
0
VERTEX
8
0
10
593.000000
20
570.000000
30
0.000000
0
VERTEX
8
0
10
587.000000
20
566.000000
30
0.000000
0
VERTEX
8
0
10
576.000000
20
564.000000
30
0.000000
0
VERTEX
8
0
10
573.000000
20
562.000000
30
0.000000
0
VERTEX
8
0
10
576.000000
20
552.000000
30
0.000000
0
VERTEX
8
0
10
585.000000
20
542.000000
30
0.000000
0
VERTEX
8
0
10
599.000000
20
533.000000
30
0.000000
0
VERTEX
8
0
10
600.000000
20
531.000000
30
0.000000
0
VERTEX
8
0
10
602.000000
20
532.000000
30
0.000000
0
VERTEX
8
0
10
602.000000
20
529.000000
30
0.000000
0
VERTEX
8
0
10
608.000000
20
529.000000
30
0.000000
0
VERTEX
8
0
10
610.000000
20
526.000000
30
0.000000
0
VERTEX
8
0
10
619.000000
20
523.000000
30
0.000000
0
VERTEX
8
0
10
621.000000
20
520.000000
30
0.000000
0
VERTEX
8
0
10
616.000000
20
519.000000
30
0.000000
0
VERTEX
8
0
10
605.000000
20
523.000000
30
0.000000
0
VERTEX
8
0
10
603.000000
20
521.000000
30
0.000000
0
VERTEX
8
0
10
600.000000
20
478.000000
30
0.000000
0
VERTEX
8
0
10
602.000000
20
474.000000
30
0.000000
0
VERTEX
8
0
10
617.000000
20
461.000000
30
0.000000
0
VERTEX
8
0
10
620.000000
20
443.000000
30
0.000000
0
VERTEX
8
0
10
623.000000
20
435.000000
30
0.000000
0
VERTEX
8
0
10
624.000000
20
423.000000
30
0.000000
0
VERTEX
8
0
10
632.000000
20
397.000000
30
0.000000
0
VERTEX
8
0
10
599.000000
20
365.000000
30
0.000000
0
VERTEX
8
0
10
599.000000
20
345.000000
30
0.000000
0
VERTEX
8
0
10
604.000000
20
339.000000
30
0.000000
0
VERTEX
8
0
10
611.000000
20
337.000000
30
0.000000
0
VERTEX
8
0
10
616.000000
20
338.000000
30
0.000000
0
VERTEX
8
0
10
622.000000
20
343.000000
30
0.000000
0
VERTEX
8
0
10
622.000000
20
351.000000
30
0.000000
0
VERTEX
8
0
10
617.000000
20
362.000000
30
0.000000
0
VERTEX
8
0
10
613.000000
20
365.000000
30
0.000000
0
VERTEX
8
0
10
618.000000
20
366.000000
30
0.000000
0
VERTEX
8
0
10
624.000000
20
370.000000
30
0.000000
0
VERTEX
8
0
10
629.000000
20
369.000000
30
0.000000
0
VERTEX
8
0
10
633.000000
20
363.000000
30
0.000000
0
VERTEX
8
0
10
634.000000
20
330.000000
30
0.000000
0
VERTEX
8
0
10
647.000000
20
322.000000
30
0.000000
0
VERTEX
8
0
10
652.000000
20
321.000000
30
0.000000
0
VERTEX
8
0
10
659.000000
20
324.000000
30
0.000000
0
VERTEX
8
0
10
658.000000
20
325.000000
30
0.000000
0
VERTEX
8
0
10
660.000000
20
327.000000
30
0.000000
0
VERTEX
8
0
10
664.000000
20
343.000000
30
0.000000
0
VERTEX
8
0
10
666.000000
20
328.000000
30
0.000000
0
VERTEX
8
0
10
669.000000
20
321.000000
30
0.000000
0
VERTEX
8
0
10
679.000000
20
321.000000
30
0.000000
0
VERTEX
8
0
10
686.000000
20
333.000000
30
0.000000
0
VERTEX
8
0
10
685.000000
20
335.000000
30
0.000000
0
VERTEX
8
0
10
687.000000
20
337.000000
30
0.000000
0
VERTEX
8
0
10
691.000000
20
363.000000
30
0.000000
0
VERTEX
8
0
10
682.000000
20
369.000000
30
0.000000
0
VERTEX
8
0
10
670.000000
20
372.000000
30
0.000000
0
VERTEX
8
0
10
667.000000
20
369.000000
30
0.000000
0
VERTEX
8
0
10
668.000000
20
358.000000
30
0.000000
0
VERTEX
8
0
10
666.000000
20
355.000000
30
0.000000
0
VERTEX
8
0
10
662.000000
20
371.000000
30
0.000000
0
VERTEX
8
0
10
681.000000
20
373.000000
30
0.000000
0
VERTEX
8
0
10
689.000000
20
370.000000
30
0.000000
0
VERTEX
8
0
10
693.000000
20
366.000000
30
0.000000
0
VERTEX
8
0
10
694.000000
20
360.000000
30
0.000000
0
VERTEX
8
0
10
700.000000
20
356.000000
30
0.000000
0
VERTEX
8
0
10
692.000000
20
347.000000
30
0.000000
0
VERTEX
8
0
10
693.000000
20
346.000000
30
0.000000
0
VERTEX
8
0
10
690.000000
20
337.000000
30
0.000000
0
VERTEX
8
0
10
690.000000
20
327.000000
30
0.000000
0
VERTEX
8
0
10
694.000000
20
324.000000
30
0.000000
0
VERTEX
8
0
10
701.000000
20
323.000000
30
0.000000
0
VERTEX
8
0
10
708.000000
20
328.000000
30
0.000000
0
VERTEX
8
0
10
720.000000
20
352.000000
30
0.000000
0
VERTEX
8
0
10
720.000000
20
361.000000
30
0.000000
0
VERTEX
8
0
10
717.000000
20
364.000000
30
0.000000
0
VERTEX
8
0
10
698.000000
20
373.000000
30
0.000000
0
VERTEX
8
0
10
697.000000
20
375.000000
30
0.000000
0
VERTEX
8
0
10
701.000000
20
375.000000
30
0.000000
0
VERTEX
8
0
10
706.000000
20
372.000000
30
0.000000
0
VERTEX
8
0
10
709.000000
20
372.000000
30
0.000000
0
VERTEX
8
0
10
710.000000
20
374.000000
30
0.000000
0
VERTEX
8
0
10
701.000000
20
384.000000
30
0.000000
0
VERTEX
8
0
10
699.000000
20
390.000000
30
0.000000
0
VERTEX
8
0
10
687.000000
20
404.000000
30
0.000000
0
VERTEX
8
0
10
690.000000
20
403.000000
30
0.000000
0
VERTEX
8
0
10
700.000000
20
393.000000
30
0.000000
0
VERTEX
8
0
10
703.000000
20
394.000000
30
0.000000
0
VERTEX
8
0
10
704.000000
20
438.000000
30
0.000000
0
VERTEX
8
0
10
711.000000
20
472.000000
30
0.000000
0
VERTEX
8
0
10
711.000000
20
489.000000
30
0.000000
0
VERTEX
8
0
10
708.000000
20
496.000000
30
0.000000
0
VERTEX
8
0
10
708.000000
20
502.000000
30
0.000000
0
VERTEX
8
0
10
698.000000
20
537.000000
30
0.000000
0
VERTEX
8
0
10
688.000000
20
559.000000
30
0.000000
0
VERTEX
8
0
10
684.000000
20
583.000000
30
0.000000
0
VERTEX
8
0
10
677.000000
20
606.000000
30
0.000000
0
SEQEND
0
POLYLINE
8
0
6
CONTINUOUS
66
1
10
0.0
20
0.0
30
0.000000
0
VERTEX
8
0
10
293.000000
20
604.000000
30
0.000000
0
VERTEX
8
0
10
291.000000
20
605.000000
30
0.000000
0
VERTEX
8
0
10
282.000000
20
592.000000
30
0.000000
0
VERTEX
8
0
10
286.000000
20
568.000000
30
0.000000
0
VERTEX
8
0
10
283.000000
20
561.000000
30
0.000000
0
VERTEX
8
0
10
279.000000
20
558.000000
30
0.000000
0
VERTEX
8
0
10
267.000000
20
557.000000
30
0.000000
0
VERTEX
8
0
10
273.000000
20
542.000000
30
0.000000
0
VERTEX
8
0
10
274.000000
20
531.000000
30
0.000000
0
VERTEX
8
0
10
276.000000
20
528.000000
30
0.000000
0
VERTEX
8
0
10
289.000000
20
542.000000
30
0.000000
0
VERTEX
8
0
10
299.000000
20
564.000000
30
0.000000
0
VERTEX
8
0
10
299.000000
20
589.000000
30
0.000000
0
VERTEX
8
0
10
293.000000
20
604.000000
30
0.000000
0
SEQEND
0
POLYLINE
8
0
6
CONTINUOUS
66
1
10
0.0
20
0.0
30
0.000000
0
VERTEX
8
0
10
703.000000
20
598.000000
30
0.000000
0
VERTEX
8
0
10
702.000000
20
599.000000
30
0.000000
0
VERTEX
8
0
10
699.000000
20
598.000000
30
0.000000
0
VERTEX
8
0
10
696.000000
20
582.000000
30
0.000000
0
VERTEX
8
0
10
690.000000
20
570.000000
30
0.000000
0
VERTEX
8
0
10
692.000000
20
557.000000
30
0.000000
0
VERTEX
8
0
10
702.000000
20
535.000000
30
0.000000
0
VERTEX
8
0
10
713.000000
20
497.000000
30
0.000000
0
VERTEX
8
0
10
713.000000
20
469.000000
30
0.000000
0
VERTEX
8
0
10
715.000000
20
468.000000
30
0.000000
0
VERTEX
8
0
10
720.000000
20
473.000000
30
0.000000
0
VERTEX
8
0
10
732.000000
20
495.000000
30
0.000000
0
VERTEX
8
0
10
735.000000
20
512.000000
30
0.000000
0
VERTEX
8
0
10
732.000000
20
527.000000
30
0.000000
0
VERTEX
8
0
10
733.000000
20
528.000000
30
0.000000
0
VERTEX
8
0
10
721.000000
20
568.000000
30
0.000000
0
VERTEX
8
0
10
715.000000
20
581.000000
30
0.000000
0
VERTEX
8
0
10
709.000000
20
588.000000
30
0.000000
0
VERTEX
8
0
10
708.000000
20
592.000000
30
0.000000
0
VERTEX
8
0
10
706.000000
20
592.000000
30
0.000000
0
VERTEX
8
0
10
707.000000
20
593.000000
30
0.000000
0
VERTEX
8
0
10
703.000000
20
598.000000
30
0.000000
0
SEQEND
0
POLYLINE
8
0
6
CONTINUOUS
66
1
10
0.0
20
0.0
30
0.000000
0
VERTEX
8
0
10
226.000000
20
582.000000
30
0.000000
0
VERTEX
8
0
10
225.000000
20
584.000000
30
0.000000
0
VERTEX
8
0
10
225.000000
20
580.000000
30
0.000000
0
VERTEX
8
0
10
226.000000
20
582.000000
30
0.000000
0
SEQEND
0
POLYLINE
8
0
6
CONTINUOUS
66
1
10
0.0
20
0.0
30
0.000000
0
VERTEX
8
0
10
225.000000
20
579.000000
30
0.000000
0
VERTEX
8
0
10
224.000000
20
580.000000
30
0.000000
0
VERTEX
8
0
10
224.000000
20
577.000000
30
0.000000
0
VERTEX
8
0
10
225.000000
20
579.000000
30
0.000000
0
SEQEND
0
POLYLINE
8
0
6
CONTINUOUS
66
1
10
0.0
20
0.0
30
0.000000
0
VERTEX
8
0
10
568.000000
20
565.000000
30
0.000000
0
VERTEX
8
0
10
567.000000
20
566.000000
30
0.000000
0
VERTEX
8
0
10
557.000000
20
545.000000
30
0.000000
0
VERTEX
8
0
10
559.000000
20
522.000000
30
0.000000
0
VERTEX
8
0
10
564.000000
20
513.000000
30
0.000000
0
VERTEX
8
0
10
564.000000
20
506.000000
30
0.000000
0
VERTEX
8
0
10
560.000000
20
499.000000
30
0.000000
0
VERTEX
8
0
10
560.000000
20
496.000000
30
0.000000
0
VERTEX
8
0
10
563.000000
20
492.000000
30
0.000000
0
VERTEX
8
0
10
581.000000
20
501.000000
30
0.000000
0
VERTEX
8
0
10
589.000000
20
508.000000
30
0.000000
0
VERTEX
8
0
10
591.000000
20
506.000000
30
0.000000
0
VERTEX
8
0
10
586.000000
20
498.000000
30
0.000000
0
VERTEX
8
0
10
587.000000
20
496.000000
30
0.000000
0
VERTEX
8
0
10
598.000000
20
505.000000
30
0.000000
0
VERTEX
8
0
10
598.000000
20
509.000000
30
0.000000
0
VERTEX
8
0
10
600.000000
20
512.000000
30
0.000000
0
VERTEX
8
0
10
599.000000
20
523.000000
30
0.000000
0
VERTEX
8
0
10
578.000000
20
543.000000
30
0.000000
0
VERTEX
8
0
10
573.000000
20
551.000000
30
0.000000
0
VERTEX
8
0
10
568.000000
20
565.000000
30
0.000000
0
SEQEND
0
POLYLINE
8
0
6
CONTINUOUS
66
1
10
0.0
20
0.0
30
0.000000
0
VERTEX
8
0
10
651.000000
20
543.000000
30
0.000000
0
VERTEX
8
0
10
652.000000
20
543.000000
30
0.000000
0
VERTEX
8
0
10
635.000000
20
526.000000
30
0.000000
0
VERTEX
8
0
10
631.000000
20
523.000000
30
0.000000
0
VERTEX
8
0
10
628.000000
20
523.000000
30
0.000000
0
VERTEX
8
0
10
635.000000
20
531.000000
30
0.000000
0
VERTEX
8
0
10
651.000000
20
543.000000
30
0.000000
0
SEQEND
0
POLYLINE
8
0
6
CONTINUOUS
66
1
10
0.0
20
0.0
30
0.000000
0
VERTEX
8
0
10
609.000000
20
525.000000
30
0.000000
0
VERTEX
8
0
10
608.000000
20
526.000000
30
0.000000
0
VERTEX
8
0
10
608.000000
20
524.000000
30
0.000000
0
VERTEX
8
0
10
609.000000
20
525.000000
30
0.000000
0
SEQEND
0
POLYLINE
8
0
6
CONTINUOUS
66
1
10
0.0
20
0.0
30
0.000000
0
VERTEX
8
0
10
596.000000
20
495.000000
30
0.000000
0
VERTEX
8
0
10
595.000000
20
496.000000
30
0.000000
0
VERTEX
8
0
10
588.000000
20
491.000000
30
0.000000
0
VERTEX
8
0
10
589.000000
20
490.000000
30
0.000000
0
VERTEX
8
0
10
588.000000
20
491.000000
30
0.000000
0
VERTEX
8
0
10
581.000000
20
486.000000
30
0.000000
0
VERTEX
8
0
10
573.000000
20
485.000000
30
0.000000
0
VERTEX
8
0
10
575.000000
20
491.000000
30
0.000000
0
VERTEX
8
0
10
573.000000
20
492.000000
30
0.000000
0
VERTEX
8
0
10
568.000000
20
490.000000
30
0.000000
0
VERTEX
8
0
10
561.000000
20
481.000000
30
0.000000
0
VERTEX
8
0
10
561.000000
20
479.000000
30
0.000000
0
VERTEX
8
0
10
571.000000
20
469.000000
30
0.000000
0
VERTEX
8
0
10
571.000000
20
463.000000
30
0.000000
0
VERTEX
8
0
10
565.000000
20
454.000000
30
0.000000
0
VERTEX
8
0
10
566.000000
20
442.000000
30
0.000000
0
VERTEX
8
0
10
569.000000
20
437.000000
30
0.000000
0
VERTEX
8
0
10
615.000000
20
424.000000
30
0.000000
0
VERTEX
8
0
10
619.000000
20
424.000000
30
0.000000
0
VERTEX
8
0
10
620.000000
20
426.000000
30
0.000000
0
VERTEX
8
0
10
618.000000
20
435.000000
30
0.000000
0
VERTEX
8
0
10
615.000000
20
438.000000
30
0.000000
0
VERTEX
8
0
10
598.000000
20
471.000000
30
0.000000
0
VERTEX
8
0
10
596.000000
20
495.000000
30
0.000000
0
SEQEND
0
POLYLINE
8
0
6
CONTINUOUS
66
1
10
0.0
20
0.0
30
0.000000
0
VERTEX
8
0
10
260.000000
20
493.000000
30
0.000000
0
VERTEX
8
0
10
259.000000
20
494.000000
30
0.000000
0
VERTEX
8
0
10
259.000000
20
492.000000
30
0.000000
0
VERTEX
8
0
10
260.000000
20
493.000000
30
0.000000
0
SEQEND
0
POLYLINE
8
0
6
CONTINUOUS
66
1
10
0.0
20
0.0
30
0.000000
0
VERTEX
8
0
10
549.000000
20
473.000000
30
0.000000
0
VERTEX
8
0
10
548.000000
20
474.000000
30
0.000000
0
VERTEX
8
0
10
534.000000
20
468.000000
30
0.000000
0
VERTEX
8
0
10
538.000000
20
461.000000
30
0.000000
0
VERTEX
8
0
10
535.000000
20
456.000000
30
0.000000
0
VERTEX
8
0
10
535.000000
20
452.000000
30
0.000000
0
VERTEX
8
0
10
554.000000
20
433.000000
30
0.000000
0
VERTEX
8
0
10
555.000000
20
449.000000
30
0.000000
0
VERTEX
8
0
10
554.000000
20
452.000000
30
0.000000
0
VERTEX
8
0
10
550.000000
20
455.000000
30
0.000000
0
VERTEX
8
0
10
554.000000
20
461.000000
30
0.000000
0
VERTEX
8
0
10
554.000000
20
466.000000
30
0.000000
0
VERTEX
8
0
10
551.000000
20
472.000000
30
0.000000
0
VERTEX
8
0
10
549.000000
20
473.000000
30
0.000000
0
SEQEND
0
POLYLINE
8
0
6
CONTINUOUS
66
1
10
0.0
20
0.0
30
0.000000
0
VERTEX
8
0
10
752.000000
20
473.000000
30
0.000000
0
VERTEX
8
0
10
751.000000
20
474.000000
30
0.000000
0
VERTEX
8
0
10
751.000000
20
472.000000
30
0.000000
0
VERTEX
8
0
10
752.000000
20
473.000000
30
0.000000
0
SEQEND
0
POLYLINE
8
0
6
CONTINUOUS
66
1
10
0.0
20
0.0
30
0.000000
0
VERTEX
8
0
10
733.000000
20
448.000000
30
0.000000
0
VERTEX
8
0
10
732.000000
20
449.000000
30
0.000000
0
VERTEX
8
0
10
732.000000
20
447.000000
30
0.000000
0
VERTEX
8
0
10
733.000000
20
448.000000
30
0.000000
0
SEQEND
0
POLYLINE
8
0
6
CONTINUOUS
66
1
10
0.0
20
0.0
30
0.000000
0
VERTEX
8
0
10
541.000000
20
445.000000
30
0.000000
0
VERTEX
8
0
10
539.000000
20
446.000000
30
0.000000
0
VERTEX
8
0
10
538.000000
20
445.000000
30
0.000000
0
VERTEX
8
0
10
540.000000
20
438.000000
30
0.000000
0
VERTEX
8
0
10
538.000000
20
433.000000
30
0.000000
0
VERTEX
8
0
10
535.000000
20
402.000000
30
0.000000
0
VERTEX
8
0
10
555.000000
20
384.000000
30
0.000000
0
VERTEX
8
0
10
558.000000
20
399.000000
30
0.000000
0
VERTEX
8
0
10
557.000000
20
424.000000
30
0.000000
0
VERTEX
8
0
10
548.000000
20
438.000000
30
0.000000
0
VERTEX
8
0
10
541.000000
20
445.000000
30
0.000000
0
SEQEND
0
POLYLINE
8
0
6
CONTINUOUS
66
1
10
0.0
20
0.0
30
0.000000
0
VERTEX
8
0
10
738.000000
20
445.000000
30
0.000000
0
VERTEX
8
0
10
737.000000
20
446.000000
30
0.000000
0
VERTEX
8
0
10
737.000000
20
443.000000
30
0.000000
0
VERTEX
8
0
10
738.000000
20
445.000000
30
0.000000
0
SEQEND
0
POLYLINE
8
0
6
CONTINUOUS
66
1
10
0.0
20
0.0
30
0.000000
0
VERTEX
8
0
10
246.000000
20
438.000000
30
0.000000
0
VERTEX
8
0
10
245.000000
20
439.000000
30
0.000000
0
VERTEX
8
0
10
222.000000
20
438.000000
30
0.000000
0
VERTEX
8
0
10
203.000000
20
434.000000
30
0.000000
0
VERTEX
8
0
10
190.000000
20
429.000000
30
0.000000
0
VERTEX
8
0
10
177.000000
20
418.000000
30
0.000000
0
VERTEX
8
0
10
172.000000
20
411.000000
30
0.000000
0
VERTEX
8
0
10
170.000000
20
411.000000
30
0.000000
0
VERTEX
8
0
10
167.000000
20
403.000000
30
0.000000
0
VERTEX
8
0
10
167.000000
20
396.000000
30
0.000000
0
VERTEX
8
0
10
169.000000
20
391.000000
30
0.000000
0
VERTEX
8
0
10
162.000000
20
382.000000
30
0.000000
0
VERTEX
8
0
10
160.000000
20
368.000000
30
0.000000
0
VERTEX
8
0
10
187.000000
20
340.000000
30
0.000000
0
VERTEX
8
0
10
199.000000
20
330.000000
30
0.000000
0
VERTEX
8
0
10
195.000000
20
325.000000
30
0.000000
0
VERTEX
8
0
10
187.000000
20
268.000000
30
0.000000
0
VERTEX
8
0
10
204.000000
20
236.000000
30
0.000000
0
VERTEX
8
0
10
218.000000
20
223.000000
30
0.000000
0
VERTEX
8
0
10
220.000000
20
219.000000
30
0.000000
0
VERTEX
8
0
10
219.000000
20
216.000000
30
0.000000
0
VERTEX
8
0
10
214.000000
20
212.000000
30
0.000000
0
VERTEX
8
0
10
214.000000
20
209.000000
30
0.000000
0
VERTEX
8
0
10
211.000000
20
207.000000
30
0.000000
0
VERTEX
8
0
10
212.000000
20
206.000000
30
0.000000
0
VERTEX
8
0
10
207.000000
20
199.000000
30
0.000000
0
VERTEX
8
0
10
195.000000
20
175.000000
30
0.000000
0
VERTEX
8
0
10
183.000000
20
161.000000
30
0.000000
0
VERTEX
8
0
10
181.000000
20
156.000000
30
0.000000
0
VERTEX
8
0
10
189.000000
20
150.000000
30
0.000000
0
VERTEX
8
0
10
190.000000
20
153.000000
30
0.000000
0
VERTEX
8
0
10
202.000000
20
167.000000
30
0.000000
0
VERTEX
8
0
10
202.000000
20
172.000000
30
0.000000
0
VERTEX
8
0
10
204.000000
20
172.000000
30
0.000000
0
VERTEX
8
0
10
205.000000
20
167.000000
30
0.000000
0
VERTEX
8
0
10
203.000000
20
162.000000
30
0.000000
0
VERTEX
8
0
10
191.000000
20
146.000000
30
0.000000
0
VERTEX
8
0
10
195.000000
20
139.000000
30
0.000000
0
VERTEX
8
0
10
207.000000
20
135.000000
30
0.000000
0
VERTEX
8
0
10
210.000000
20
138.000000
30
0.000000
0
VERTEX
8
0
10
210.000000
20
142.000000
30
0.000000
0
VERTEX
8
0
10
214.000000
20
150.000000
30
0.000000
0
VERTEX
8
0
10
225.000000
20
164.000000
30
0.000000
0
VERTEX
8
0
10
225.000000
20
160.000000
30
0.000000
0
VERTEX
8
0
10
213.000000
20
141.000000
30
0.000000
0
VERTEX
8
0
10
214.000000
20
135.000000
30
0.000000
0
VERTEX
8
0
10
220.000000
20
131.000000
30
0.000000
0
VERTEX
8
0
10
222.000000
20
133.000000
30
0.000000
0
VERTEX
8
0
10
227.000000
20
133.000000
30
0.000000
0
VERTEX
8
0
10
231.000000
20
128.000000
30
0.000000
0
VERTEX
8
0
10
233.000000
20
131.000000
30
0.000000
0
VERTEX
8
0
10
232.000000
20
134.000000
30
0.000000
0
VERTEX
8
0
10
234.000000
20
146.000000
30
0.000000
0
VERTEX
8
0
10
248.000000
20
160.000000
30
0.000000
0
VERTEX
8
0
10
250.000000
20
163.000000
30
0.000000
0
VERTEX
8
0
10
249.000000
20
169.000000
30
0.000000
0
VERTEX
8
0
10
252.000000
20
168.000000
30
0.000000
0
VERTEX
8
0
10
252.000000
20
161.000000
30
0.000000
0
VERTEX
8
0
10
249.000000
20
156.000000
30
0.000000
0
VERTEX
8
0
10
237.000000
20
144.000000
30
0.000000
0
VERTEX
8
0
10
238.000000
20
130.000000
30
0.000000
0
VERTEX
8
0
10
246.000000
20
134.000000
30
0.000000
0
VERTEX
8
0
10
249.000000
20
133.000000
30
0.000000
0
VERTEX
8
0
10
252.000000
20
129.000000
30
0.000000
0
VERTEX
8
0
10
252.000000
20
125.000000
30
0.000000
0
VERTEX
8
0
10
256.000000
20
121.000000
30
0.000000
0
VERTEX
8
0
10
263.000000
20
121.000000
30
0.000000
0
VERTEX
8
0
10
273.000000
20
126.000000
30
0.000000
0
VERTEX
8
0
10
284.000000
20
141.000000
30
0.000000
0
VERTEX
8
0
10
290.000000
20
144.000000
30
0.000000
0
VERTEX
8
0
10
305.000000
20
156.000000
30
0.000000
0
VERTEX
8
0
10
322.000000
20
175.000000
30
0.000000
0
VERTEX
8
0
10
324.000000
20
179.000000
30
0.000000
0
VERTEX
8
0
10
324.000000
20
187.000000
30
0.000000
0
VERTEX
8
0
10
315.000000
20
217.000000
30
0.000000
0
VERTEX
8
0
10
313.000000
20
219.000000
30
0.000000
0
VERTEX
8
0
10
310.000000
20
233.000000
30
0.000000
0
VERTEX
8
0
10
310.000000
20
249.000000
30
0.000000
0
VERTEX
8
0
10
313.000000
20
262.000000
30
0.000000
0
VERTEX
8
0
10
314.000000
20
285.000000
30
0.000000
0
VERTEX
8
0
10
304.000000
20
319.000000
30
0.000000
0
VERTEX
8
0
10
294.000000
20
340.000000
30
0.000000
0
VERTEX
8
0
10
293.000000
20
348.000000
30
0.000000
0
VERTEX
8
0
10
297.000000
20
359.000000
30
0.000000
0
VERTEX
8
0
10
296.000000
20
360.000000
30
0.000000
0
VERTEX
8
0
10
294.000000
20
357.000000
30
0.000000
0
VERTEX
8
0
10
288.000000
20
390.000000
30
0.000000
0
VERTEX
8
0
10
282.000000
20
405.000000
30
0.000000
0
VERTEX
8
0
10
283.000000
20
410.000000
30
0.000000
0
VERTEX
8
0
10
267.000000
20
425.000000
30
0.000000
0
VERTEX
8
0
10
253.000000
20
435.000000
30
0.000000
0
VERTEX
8
0
10
246.000000
20
438.000000
30
0.000000
0
SEQEND
0
POLYLINE
8
0
6
CONTINUOUS
66
1
10
0.0
20
0.0
30
0.000000
0
VERTEX
8
0
10
729.000000
20
429.000000
30
0.000000
0
VERTEX
8
0
10
728.000000
20
430.000000
30
0.000000
0
VERTEX
8
0
10
728.000000
20
428.000000
30
0.000000
0
VERTEX
8
0
10
729.000000
20
429.000000
30
0.000000
0
SEQEND
0
POLYLINE
8
0
6
CONTINUOUS
66
1
10
0.0
20
0.0
30
0.000000
0
VERTEX
8
0
10
721.000000
20
421.000000
30
0.000000
0
VERTEX
8
0
10
720.000000
20
422.000000
30
0.000000
0
VERTEX
8
0
10
720.000000
20
420.000000
30
0.000000
0
VERTEX
8
0
10
721.000000
20
421.000000
30
0.000000
0
SEQEND
0
POLYLINE
8
0
6
CONTINUOUS
66
1
10
0.0
20
0.0
30
0.000000
0
VERTEX
8
0
10
723.000000
20
420.000000
30
0.000000
0
VERTEX
8
0
10
722.000000
20
421.000000
30
0.000000
0
VERTEX
8
0
10
722.000000
20
419.000000
30
0.000000
0
VERTEX
8
0
10
723.000000
20
420.000000
30
0.000000
0
SEQEND
0
POLYLINE
8
0
6
CONTINUOUS
66
1
10
0.0
20
0.0
30
0.000000
0
VERTEX
8
0
10
498.000000
20
409.000000
30
0.000000
0
VERTEX
8
0
10
497.000000
20
410.000000
30
0.000000
0
VERTEX
8
0
10
478.000000
20
410.000000
30
0.000000
0
VERTEX
8
0
10
453.000000
20
400.000000
30
0.000000
0
VERTEX
8
0
10
438.000000
20
388.000000
30
0.000000
0
VERTEX
8
0
10
435.000000
20
381.000000
30
0.000000
0
VERTEX
8
0
10
427.000000
20
371.000000
30
0.000000
0
VERTEX
8
0
10
421.000000
20
355.000000
30
0.000000
0
VERTEX
8
0
10
422.000000
20
334.000000
30
0.000000
0
VERTEX
8
0
10
424.000000
20
331.000000
30
0.000000
0
VERTEX
8
0
10
424.000000
20
326.000000
30
0.000000
0
VERTEX
8
0
10
421.000000
20
319.000000
30
0.000000
0
VERTEX
8
0
10
421.000000
20
312.000000
30
0.000000
0
VERTEX
8
0
10
419.000000
20
312.000000
30
0.000000
0
VERTEX
8
0
10
415.000000
20
306.000000
30
0.000000
0
VERTEX
8
0
10
413.000000
20
295.000000
30
0.000000
0
VERTEX
8
0
10
404.000000
20
277.000000
30
0.000000
0
VERTEX
8
0
10
401.000000
20
265.000000
30
0.000000
0
VERTEX
8
0
10
408.000000
20
236.000000
30
0.000000
0
VERTEX
8
0
10
419.000000
20
207.000000
30
0.000000
0
VERTEX
8
0
10
410.000000
20
195.000000
30
0.000000
0
VERTEX
8
0
10
410.000000
20
191.000000
30
0.000000
0
VERTEX
8
0
10
403.000000
20
182.000000
30
0.000000
0
VERTEX
8
0
10
382.000000
20
164.000000
30
0.000000
0
VERTEX
8
0
10
362.000000
20
153.000000
30
0.000000
0
VERTEX
8
0
10
355.000000
20
145.000000
30
0.000000
0
VERTEX
8
0
10
351.000000
20
136.000000
30
0.000000
0
VERTEX
8
0
10
359.000000
20
130.000000
30
0.000000
0
VERTEX
8
0
10
365.000000
20
130.000000
30
0.000000
0
VERTEX
8
0
10
368.000000
20
134.000000
30
0.000000
0
VERTEX
8
0
10
373.000000
20
134.000000
30
0.000000
0
VERTEX
8
0
10
376.000000
20
128.000000
30
0.000000
0
VERTEX
8
0
10
374.000000
20
119.000000
30
0.000000
0
VERTEX
8
0
10
379.000000
20
114.000000
30
0.000000
0
VERTEX
8
0
10
383.000000
20
113.000000
30
0.000000
0
VERTEX
8
0
10
393.000000
20
132.000000
30
0.000000
0
VERTEX
8
0
10
397.000000
20
144.000000
30
0.000000
0
VERTEX
8
0
10
396.000000
20
148.000000
30
0.000000
0
VERTEX
8
0
10
390.000000
20
153.000000
30
0.000000
0
VERTEX
8
0
10
390.000000
20
156.000000
30
0.000000
0
VERTEX
8
0
10
399.000000
20
158.000000
30
0.000000
0
VERTEX
8
0
10
404.000000
20
157.000000
30
0.000000
0
VERTEX
8
0
10
407.000000
20
150.000000
30
0.000000
0
VERTEX
8
0
10
399.000000
20
143.000000
30
0.000000
0
VERTEX
8
0
10
394.000000
20
125.000000
30
0.000000
0
VERTEX
8
0
10
388.000000
20
116.000000
30
0.000000
0
VERTEX
8
0
10
386.000000
20
112.000000
30
0.000000
0
VERTEX
8
0
10
388.000000
20
108.000000
30
0.000000
0
VERTEX
8
0
10
391.000000
20
112.000000
30
0.000000
0
VERTEX
8
0
10
400.000000
20
113.000000
30
0.000000
0
VERTEX
8
0
10
404.000000
20
110.000000
30
0.000000
0
VERTEX
8
0
10
404.000000
20
105.000000
30
0.000000
0
VERTEX
8
0
10
399.000000
20
99.000000
30
0.000000
0
VERTEX
8
0
10
403.000000
20
94.000000
30
0.000000
0
VERTEX
8
0
10
407.000000
20
93.000000
30
0.000000
0
VERTEX
8
0
10
414.000000
20
104.000000
30
0.000000
0
VERTEX
8
0
10
426.000000
20
118.000000
30
0.000000
0
VERTEX
8
0
10
428.000000
20
127.000000
30
0.000000
0
VERTEX
8
0
10
423.000000
20
138.000000
30
0.000000
0
VERTEX
8
0
10
426.000000
20
138.000000
30
0.000000
0
VERTEX
8
0
10
433.000000
20
134.000000
30
0.000000
0
VERTEX
8
0
10
434.000000
20
131.000000
30
0.000000
0
VERTEX
8
0
10
432.000000
20
131.000000
30
0.000000
0
VERTEX
8
0
10
430.000000
20
128.000000
30
0.000000
0
VERTEX
8
0
10
428.000000
20
118.000000
30
0.000000
0
VERTEX
8
0
10
417.000000
20
100.000000
30
0.000000
0
VERTEX
8
0
10
411.000000
20
93.000000
30
0.000000
0
VERTEX
8
0
10
416.000000
20
88.000000
30
0.000000
0
VERTEX
8
0
10
420.000000
20
93.000000
30
0.000000
0
VERTEX
8
0
10
427.000000
20
91.000000
30
0.000000
0
VERTEX
8
0
10
427.000000
20
81.000000
30
0.000000
0
VERTEX
8
0
10
434.000000
20
77.000000
30
0.000000
0
VERTEX
8
0
10
440.000000
20
83.000000
30
0.000000
0
VERTEX
8
0
10
452.000000
20
100.000000
30
0.000000
0
VERTEX
8
0
10
452.000000
20
114.000000
30
0.000000
0
VERTEX
8
0
10
450.000000
20
115.000000
30
0.000000
0
VERTEX
8
0
10
450.000000
20
118.000000
30
0.000000
0
VERTEX
8
0
10
452.000000
20
121.000000
30
0.000000
0
VERTEX
8
0
10
455.000000
20
118.000000
30
0.000000
0
VERTEX
8
0
10
454.000000
20
103.000000
30
0.000000
0
VERTEX
8
0
10
452.000000
20
101.000000
30
0.000000
0
VERTEX
8
0
10
452.000000
20
96.000000
30
0.000000
0
VERTEX
8
0
10
449.000000
20
89.000000
30
0.000000
0
VERTEX
8
0
10
438.000000
20
75.000000
30
0.000000
0
VERTEX
8
0
10
442.000000
20
71.000000
30
0.000000
0
VERTEX
8
0
10
446.000000
20
76.000000
30
0.000000
0
VERTEX
8
0
10
454.000000
20
78.000000
30
0.000000
0
VERTEX
8
0
10
460.000000
20
75.000000
30
0.000000
0
VERTEX
8
0
10
465.000000
20
80.000000
30
0.000000
0
VERTEX
8
0
10
464.000000
20
81.000000
30
0.000000
0
VERTEX
8
0
10
468.000000
20
86.000000
30
0.000000
0
VERTEX
8
0
10
468.000000
20
101.000000
30
0.000000
0
VERTEX
8
0
10
473.000000
20
121.000000
30
0.000000
0
VERTEX
8
0
10
475.000000
20
124.000000
30
0.000000
0
VERTEX
8
0
10
476.000000
20
135.000000
30
0.000000
0
VERTEX
8
0
10
478.000000
20
138.000000
30
0.000000
0
VERTEX
8
0
10
478.000000
20
146.000000
30
0.000000
0
VERTEX
8
0
10
481.000000
20
151.000000
30
0.000000
0
VERTEX
8
0
10
481.000000
20
165.000000
30
0.000000
0
VERTEX
8
0
10
482.000000
20
156.000000
30
0.000000
0
VERTEX
8
0
10
484.000000
20
154.000000
30
0.000000
0
VERTEX
8
0
10
489.000000
20
162.000000
30
0.000000
0
VERTEX
8
0
10
492.000000
20
173.000000
30
0.000000
0
VERTEX
8
0
10
495.000000
20
177.000000
30
0.000000
0
VERTEX
8
0
10
496.000000
20
191.000000
30
0.000000
0
VERTEX
8
0
10
504.000000
20
198.000000
30
0.000000
0
VERTEX
8
0
10
510.000000
20
200.000000
30
0.000000
0
VERTEX
8
0
10
524.000000
20
213.000000
30
0.000000
0
VERTEX
8
0
10
535.000000
20
232.000000
30
0.000000
0
VERTEX
8
0
10
540.000000
20
255.000000
30
0.000000
0
VERTEX
8
0
10
540.000000
20
280.000000
30
0.000000
0
VERTEX
8
0
10
547.000000
20
297.000000
30
0.000000
0
VERTEX
8
0
10
547.000000
20
317.000000
30
0.000000
0
VERTEX
8
0
10
545.000000
20
328.000000
30
0.000000
0
VERTEX
8
0
10
548.000000
20
337.000000
30
0.000000
0
VERTEX
8
0
10
548.000000
20
356.000000
30
0.000000
0
VERTEX
8
0
10
544.000000
20
370.000000
30
0.000000
0
VERTEX
8
0
10
535.000000
20
387.000000
30
0.000000
0
VERTEX
8
0
10
535.000000
20
390.000000
30
0.000000
0
VERTEX
8
0
10
529.000000
20
396.000000
30
0.000000
0
VERTEX
8
0
10
513.000000
20
405.000000
30
0.000000
0
VERTEX
8
0
10
498.000000
20
409.000000
30
0.000000
0
SEQEND
0
POLYLINE
8
0
6
CONTINUOUS
66
1
10
0.0
20
0.0
30
0.000000
0
VERTEX
8
0
10
664.000000
20
408.000000
30
0.000000
0
VERTEX
8
0
10
669.000000
20
408.000000
30
0.000000
0
VERTEX
8
0
10
641.000000
20
397.000000
30
0.000000
0
VERTEX
8
0
10
645.000000
20
401.000000
30
0.000000
0
VERTEX
8
0
10
664.000000
20
408.000000
30
0.000000
0
SEQEND
0
POLYLINE
8
0
6
CONTINUOUS
66
1
10
0.0
20
0.0
30
0.000000
0
VERTEX
8
0
10
604.000000
20
407.000000
30
0.000000
0
VERTEX
8
0
10
603.000000
20
408.000000
30
0.000000
0
VERTEX
8
0
10
603.000000
20
406.000000
30
0.000000
0
VERTEX
8
0
10
604.000000
20
407.000000
30
0.000000
0
SEQEND
0
POLYLINE
8
0
6
CONTINUOUS
66
1
10
0.0
20
0.0
30
0.000000
0
VERTEX
8
0
10
524.000000
20
392.000000
30
0.000000
0
VERTEX
8
0
10
525.000000
20
393.000000
30
0.000000
0
VERTEX
8
0
10
532.000000
20
387.000000
30
0.000000
0
VERTEX
8
0
10
538.000000
20
376.000000
30
0.000000
0
VERTEX
8
0
10
529.000000
20
388.000000
30
0.000000
0
VERTEX
8
0
10
524.000000
20
392.000000
30
0.000000
0
SEQEND
0
POLYLINE
8
0
6
CONTINUOUS
66
1
10
0.0
20
0.0
30
0.000000
0
VERTEX
8
0
10
456.000000
20
387.000000
30
0.000000
0
VERTEX
8
0
10
457.000000
20
387.000000
30
0.000000
0
VERTEX
8
0
10
453.000000
20
381.000000
30
0.000000
0
VERTEX
8
0
10
454.000000
20
379.000000
30
0.000000
0
VERTEX
8
0
10
455.000000
20
380.000000
30
0.000000
0
VERTEX
8
0
10
455.000000
20
377.000000
30
0.000000
0
VERTEX
8
0
10
446.000000
20
359.000000
30
0.000000
0
VERTEX
8
0
10
443.000000
20
356.000000
30
0.000000
0
VERTEX
8
0
10
443.000000
20
363.000000
30
0.000000
0
VERTEX
8
0
10
446.000000
20
372.000000
30
0.000000
0
VERTEX
8
0
10
452.000000
20
383.000000
30
0.000000
0
VERTEX
8
0
10
456.000000
20
387.000000
30
0.000000
0
SEQEND
0
POLYLINE
8
0
6
CONTINUOUS
66
1
10
0.0
20
0.0
30
0.000000
0
VERTEX
8
0
10
642.000000
20
377.000000
30
0.000000
0
VERTEX
8
0
10
650.000000
20
377.000000
30
0.000000
0
VERTEX
8
0
10
643.000000
20
374.000000
30
0.000000
0
VERTEX
8
0
10
637.000000
20
374.000000
30
0.000000
0
VERTEX
8
0
10
642.000000
20
377.000000
30
0.000000
0
SEQEND
0
POLYLINE
8
0
6
CONTINUOUS
66
1
10
0.0
20
0.0
30
0.000000
0
VERTEX
8
0
10
157.000000
20
376.000000
30
0.000000
0
VERTEX
8
0
10
156.000000
20
377.000000
30
0.000000
0
VERTEX
8
0
10
130.000000
20
349.000000
30
0.000000
0
VERTEX
8
0
10
117.000000
20
331.000000
30
0.000000
0
VERTEX
8
0
10
118.000000
20
328.000000
30
0.000000
0
VERTEX
8
0
10
137.000000
20
335.000000
30
0.000000
0
VERTEX
8
0
10
161.000000
20
352.000000
30
0.000000
0
VERTEX
8
0
10
156.000000
20
368.000000
30
0.000000
0
VERTEX
8
0
10
157.000000
20
376.000000
30
0.000000
0
SEQEND
0
POLYLINE
8
0
6
CONTINUOUS
66
1
10
0.0
20
0.0
30
0.000000
0
VERTEX
8
0
10
241.000000
20
370.000000
30
0.000000
0
VERTEX
8
0
10
243.000000
20
370.000000
30
0.000000
0
VERTEX
8
0
10
234.000000
20
358.000000
30
0.000000
0
VERTEX
8
0
10
235.000000
20
354.000000
30
0.000000
0
VERTEX
8
0
10
233.000000
20
350.000000
30
0.000000
0
VERTEX
8
0
10
231.000000
20
350.000000
30
0.000000
0
VERTEX
8
0
10
233.000000
20
356.000000
30
0.000000
0
VERTEX
8
0
10
230.000000
20
358.000000
30
0.000000
0
VERTEX
8
0
10
241.000000
20
370.000000
30
0.000000
0
SEQEND
0
POLYLINE
8
0
6
CONTINUOUS
66
1
10
0.0
20
0.0
30
0.000000
0
VERTEX
8
0
10
726.000000
20
354.000000
30
0.000000
0
VERTEX
8
0
10
725.000000
20
355.000000
30
0.000000
0
VERTEX
8
0
10
725.000000
20
352.000000
30
0.000000
0
VERTEX
8
0
10
726.000000
20
354.000000
30
0.000000
0
SEQEND
0
POLYLINE
8
0
6
CONTINUOUS
66
1
10
0.0
20
0.0
30
0.000000
0
VERTEX
8
0
10
725.000000
20
350.000000
30
0.000000
0
VERTEX
8
0
10
724.000000
20
351.000000
30
0.000000
0
VERTEX
8
0
10
724.000000
20
349.000000
30
0.000000
0
VERTEX
8
0
10
725.000000
20
350.000000
30
0.000000
0
SEQEND
0
POLYLINE
8
0
6
CONTINUOUS
66
1
10
0.0
20
0.0
30
0.000000
0
VERTEX
8
0
10
304.000000
20
344.000000
30
0.000000
0
VERTEX
8
0
10
303.000000
20
345.000000
30
0.000000
0
VERTEX
8
0
10
303.000000
20
343.000000
30
0.000000
0
VERTEX
8
0
10
304.000000
20
344.000000
30
0.000000
0
SEQEND
0
POLYLINE
8
0
6
CONTINUOUS
66
1
10
0.0
20
0.0
30
0.000000
0
VERTEX
8
0
10
445.000000
20
336.000000
30
0.000000
0
VERTEX
8
0
10
450.000000
20
336.000000
30
0.000000
0
VERTEX
8
0
10
455.000000
20
334.000000
30
0.000000
0
VERTEX
8
0
10
461.000000
20
328.000000
30
0.000000
0
VERTEX
8
0
10
460.000000
20
310.000000
30
0.000000
0
VERTEX
8
0
10
454.000000
20
290.000000
30
0.000000
0
VERTEX
8
0
10
451.000000
20
294.000000
30
0.000000
0
VERTEX
8
0
10
449.000000
20
303.000000
30
0.000000
0
VERTEX
8
0
10
446.000000
20
306.000000
30
0.000000
0
VERTEX
8
0
10
444.000000
20
312.000000
30
0.000000
0
VERTEX
8
0
10
445.000000
20
315.000000
30
0.000000
0
VERTEX
8
0
10
439.000000
20
324.000000
30
0.000000
0
VERTEX
8
0
10
442.000000
20
326.000000
30
0.000000
0
VERTEX
8
0
10
441.000000
20
332.000000
30
0.000000
0
VERTEX
8
0
10
445.000000
20
336.000000
30
0.000000
0
SEQEND
0
POLYLINE
8
0
6
CONTINUOUS
66
1
10
0.0
20
0.0
30
0.000000
0
VERTEX
8
0
10
706.000000
20
325.000000
30
0.000000
0
VERTEX
8
0
10
705.000000
20
326.000000
30
0.000000
0
VERTEX
8
0
10
705.000000
20
324.000000
30
0.000000
0
VERTEX
8
0
10
706.000000
20
325.000000
30
0.000000
0
SEQEND
0
POLYLINE
8
0
6
CONTINUOUS
66
1
10
0.0
20
0.0
30
0.000000
0
VERTEX
8
0
10
525.000000
20
320.000000
30
0.000000
0
VERTEX
8
0
10
527.000000
20
320.000000
30
0.000000
0
VERTEX
8
0
10
524.000000
20
314.000000
30
0.000000
0
VERTEX
8
0
10
522.000000
20
314.000000
30
0.000000
0
VERTEX
8
0
10
516.000000
20
307.000000
30
0.000000
0
VERTEX
8
0
10
514.000000
20
307.000000
30
0.000000
0
VERTEX
8
0
10
509.000000
20
301.000000
30
0.000000
0
VERTEX
8
0
10
504.000000
20
298.000000
30
0.000000
0
VERTEX
8
0
10
525.000000
20
320.000000
30
0.000000
0
SEQEND
0
POLYLINE
8
0
6
CONTINUOUS
66
1
10
0.0
20
0.0
30
0.000000
0
VERTEX
8
0
10
306.000000
20
220.000000
30
0.000000
0
VERTEX
8
0
10
307.000000
20
221.000000
30
0.000000
0
VERTEX
8
0
10
305.000000
20
214.000000
30
0.000000
0
VERTEX
8
0
10
306.000000
20
213.000000
30
0.000000
0
VERTEX
8
0
10
308.000000
20
215.000000
30
0.000000
0
VERTEX
8
0
10
308.000000
20
211.000000
30
0.000000
0
VERTEX
8
0
10
305.000000
20
208.000000
30
0.000000
0
VERTEX
8
0
10
306.000000
20
213.000000
30
0.000000
0
VERTEX
8
0
10
305.000000
20
214.000000
30
0.000000
0
VERTEX
8
0
10
301.000000
20
210.000000
30
0.000000
0
VERTEX
8
0
10
301.000000
20
213.000000
30
0.000000
0
VERTEX
8
0
10
306.000000
20
220.000000
30
0.000000
0
SEQEND
0
POLYLINE
8
0
6
CONTINUOUS
66
1
10
0.0
20
0.0
30
0.000000
0
VERTEX
8
0
10
173.000000
20
137.000000
30
0.000000
0
VERTEX
8
0
10
172.000000
20
138.000000
30
0.000000
0
VERTEX
8
0
10
172.000000
20
135.000000
30
0.000000
0
VERTEX
8
0
10
173.000000
20
137.000000
30
0.000000
0
SEQEND
0
POLYLINE
8
0
6
CONTINUOUS
66
1
10
0.0
20
0.0
30
0.000000
0
VERTEX
8
0
10
233.000000
20
128.000000
30
0.000000
0
VERTEX
8
0
10
232.000000
20
129.000000
30
0.000000
0
VERTEX
8
0
10
232.000000
20
127.000000
30
0.000000
0
VERTEX
8
0
10
233.000000
20
128.000000
30
0.000000
0
SEQEND
0
ENDSEC
0
EOF
